<?xml version="1.0" standalone="no"?>
<!DOCTYPE svg PUBLIC "-//W3C//DTD SVG 1.1//EN" "http://www.w3.org/Graphics/SVG/1.1/DTD/svg11.dtd" >
<svg xmlns="http://www.w3.org/2000/svg" xmlns:xlink="http://www.w3.org/1999/xlink" version="1.1">
<metadata></metadata>
<defs>
<font id="alphalight_italic" horiz-adv-x="923" >
<font-face units-per-em="2048" ascent="1434" descent="-614" />
<missing-glyph horiz-adv-x="452" />
<glyph unicode="&#xfb01;" horiz-adv-x="980" d="M74 -588l186 1327h-119q-26 0 -22 31l4 23q2 11 10.5 18.5t18.5 7.5h118l39 273q25 173 125.5 267.5t227.5 94.5q88 0 153 -35.5t100 -75.5q12 -12 -2 -30l-26 -33q-15 -17 -33 -2q-1 1 -10.5 9.5t-13 11.5t-14 11.5t-17 12.5t-18 11.5t-20 11.5t-21.5 9.5t-24.5 8 t-25.5 4.5t-28 2q-96 0 -171 -72t-94 -206l-39 -273h516q11 0 17.5 -8t5.5 -18l-109 -766q-1 -11 -10.5 -19t-19.5 -8h-37q-9 0 -16.5 8.5t-6.5 18.5l101 712h-453l-186 -1327q-2 -11 -10.5 -18.5t-18.5 -7.5h-35q-10 0 -17 7.5t-5 18.5z" />
<glyph unicode="&#xfb02;" horiz-adv-x="987" d="M74 -588l186 1327h-121q-13 0 -18.5 8.5t-3.5 18.5l4 27q2 11 10.5 18.5t18.5 7.5h120l39 283q12 88 46 156.5t82.5 110.5t104.5 63.5t117 21.5q47 0 91.5 -14t74 -34.5t47.5 -36.5t25 -26l18 66q5 13 12.5 19t24.5 6h15q10 0 17 -8t5 -19l-194 -1380q-1 -11 -11 -19 t-20 -8h-37q-9 0 -15 8.5t-5 18.5l170 1212q-85 127 -218 127q-94 0 -168.5 -66t-93.5 -198l-39 -283h258q26 0 23 -24l-4 -31q-4 -25 -29 -25h-260l-186 -1327q-2 -11 -10.5 -18.5t-18.5 -7.5h-37q-10 0 -16 7.5t-4 18.5z" />
<glyph horiz-adv-x="0" />
<glyph horiz-adv-x="682" />
<glyph unicode=" "  horiz-adv-x="452" />
<glyph unicode="&#x09;" horiz-adv-x="452" />
<glyph unicode="&#xa0;" horiz-adv-x="452" />
<glyph unicode="!" horiz-adv-x="608" d="M311 51q0 39 28 65.5t64 26.5q30 0 49 -20t19 -51q0 -38 -26.5 -65t-63.5 -27q-30 0 -50 20.5t-20 50.5zM430 575l96 832q2 27 33 27h53q10 0 17.5 -8t5.5 -19l-137 -832q-3 -9 -11.5 -16.5t-17.5 -7.5h-16q-10 0 -17.5 7.5t-5.5 16.5z" />
<glyph unicode="&#x22;" horiz-adv-x="581" d="M354 1038l52 369q2 11 11 19t19 8h45q11 0 16.5 -9t2.5 -24l-86 -363q-7 -22 -23 -22h-22q-18 0 -15 22zM631 1038l53 369q2 11 10.5 19t18.5 8h45q12 0 17 -9t1 -24l-86 -363q-2 -9 -8 -15.5t-14 -6.5h-23q-17 0 -14 22z" />
<glyph unicode="#" horiz-adv-x="1036" d="M156 449l2 14q3 22 26 22h158l109 373h-160q-10 0 -17.5 8t-5.5 19l2 12q2 11 10.5 19t18.5 8h170l139 487q6 23 29 23h12q12 0 17 -9.5t2 -21.5l-138 -479h297l140 487q6 23 28 23h11q12 0 16.5 -9t1.5 -22l-135 -479h149q10 0 16.5 -8t4.5 -19l-2 -12q-2 -11 -9.5 -19 t-17.5 -8h-158l-108 -373h158q10 0 17 -7.5t5 -18.5l-2 -15q-3 -22 -27 -22h-170l-114 -399q-8 -23 -29 -23h-12q-30 0 -19 31l113 391h-299l-113 -399q-8 -23 -28 -23h-13q-29 0 -18 31l113 391h-152q-9 0 -14.5 8t-3.5 19zM406 485h296l107 373h-295z" />
<glyph unicode="$" horiz-adv-x="1011" d="M125 193l29 26q23 20 43 -6q105 -133 278 -145l86 614q-317 122 -317 375q0 49 15.5 101t50 102.5t83 91.5t120.5 68t157 32l10 76q1 12 11 19t20 7h8q11 0 17 -7t5 -19l-12 -78q46 -3 90.5 -14.5t75.5 -26t55.5 -28.5t36.5 -23l12 -10q16 -16 5 -31l-35 -49 q-5 -8 -14.5 -8t-18.5 8q-94 82 -219 94q-27 -202 -86 -610q159 -66 239 -151t80 -216q0 -85 -36.5 -159.5t-96.5 -126t-137.5 -83t-159.5 -36.5l-31 -222q-3 -24 -30 -24q-14 0 -22 5.5t-7 18.5l33 222q-220 19 -336 167q-22 28 -2 46zM340 1065q0 -107 59.5 -174 t175.5 -115l82 588q-80 -4 -143 -34.5t-99.5 -75.5t-55.5 -93.5t-19 -95.5zM532 68q128 8 223 96.5t95 212.5q0 95 -60 161.5t-174 116.5z" />
<glyph unicode="%" horiz-adv-x="1290" d="M306 8.5q-4 8.5 3 20.5l891 1390q9 15 29 15h37q12 0 15.5 -8.5t-3.5 -20.5l-887 -1385q-14 -20 -35 -20h-34q-12 0 -16 8.5zM324 1133q0 132 90 226.5t207 94.5q93 0 155 -71t62 -173q0 -132 -90 -226.5t-207 -94.5q-93 0 -155 71t-62 173zM403 1143q0 -75 41.5 -126.5 t106.5 -51.5q83 0 145 69.5t62 165.5q0 73 -42 124.5t-106 51.5q-84 0 -145.5 -69t-61.5 -164zM774 223q0 131 89.5 226.5t207.5 95.5q93 0 154 -71.5t61 -174.5q0 -130 -89.5 -226t-205.5 -96q-95 0 -156 71.5t-61 174.5zM852 231q0 -75 42 -125.5t107 -50.5q81 0 144 69.5 t63 164.5q0 73 -42 124.5t-107 51.5q-82 0 -144.5 -69.5t-62.5 -164.5z" />
<glyph unicode="&#x26;" horiz-adv-x="1255" d="M270 301q0 72 21 137t52 112t78.5 91t89 72.5t93.5 58.5l-37 47q-60 76 -85 149.5t-11 168.5q9 55 36 109t70 101.5t109.5 77t144.5 29.5q125 0 194 -78t69 -188q0 -61 -23 -118t-57 -100t-87 -86.5t-97 -72t-103 -61.5l305 -408q73 83 121.5 213t50.5 246q0 18 17 18h45 q20 0 20 -22q0 -126 -51 -263t-148 -260l158 -206q12 -12 15 -25.5t-9 -24.5l-32 -24q-23 -18 -41 4l-150 203q-8 -9 -22.5 -24t-62 -53t-96.5 -67t-121.5 -53t-141.5 -24q-145 0 -229.5 93t-84.5 228zM360 313q0 -107 67 -179.5t169 -72.5q59 0 120 21.5t106 51.5t81 60.5 t55 51.5l19 22l-326 443q-47 -27 -83.5 -52.5t-77.5 -63.5t-67.5 -77.5t-44.5 -92.5t-18 -112zM555 1135q-19 -133 80 -265l45 -57q52 29 90 53.5t84 61t75.5 72t49.5 82t20 94.5q0 81 -47 139.5t-137 58.5q-108 0 -177.5 -72t-82.5 -167z" />
<glyph unicode="'" horiz-adv-x="305" d="M356 1038l54 369q2 11 10 19t18 8h45q26 0 19 -33l-86 -363q-7 -22 -23 -22h-22q-18 0 -15 22z" />
<glyph unicode="(" horiz-adv-x="671" d="M270 424q0 158 18.5 294.5t50 239t76 185.5t94.5 138.5t107.5 94t113.5 57t114 21.5q22 0 22 -18l-2 -31q0 -10 -6 -17.5t-12 -7.5q-227 -33 -356.5 -273t-129.5 -681q0 -236 73 -362.5t206 -147.5q18 -4 12 -25l-8 -34q-3 -17 -25 -17q-56 4 -105 24.5t-94.5 65 t-77.5 109.5t-51.5 163.5t-19.5 221.5z" />
<glyph unicode=")" horiz-adv-x="669" d="M-74 -143l2 37q0 20 21 24q229 33 356 270t127 678q0 236 -72 364.5t-204 149.5q-9 0 -13.5 8t-1.5 19l6 29q3 18 29 18q55 -3 103.5 -24t93.5 -66t77 -111t51 -165t19 -222q0 -219 -34.5 -396t-90 -290.5t-131 -191t-153 -111.5t-160.5 -37q-25 0 -25 17z" />
<glyph unicode="*" horiz-adv-x="643" d="M291 989q-8 25 10 35l180 113l-149 112q-7 5 -8 16t6 19l14 16q16 20 33 9l141 -113l29 211q1 10 10 18.5t18 8.5h17q10 0 17 -8t5 -19l-32 -211l172 115q11 7 21 4t13 -12l7 -17q8 -23 -13 -35l-180 -114l150 -115q7 -4 8 -15t-4 -18l-13 -18q-6 -9 -17.5 -11.5 t-18.5 3.5l-142 114l-26 -211q-4 -26 -31 -26h-14q-11 0 -17.5 8t-5.5 18l31 211l-170 -112q-11 -6 -21.5 -3.5t-13.5 11.5z" />
<glyph unicode="+" horiz-adv-x="944" d="M217 694l6 33q2 11 10.5 19t18.5 8h313l49 352q1 10 9.5 17t19.5 7h33q11 0 17 -7t5 -17l-49 -352h312q10 0 17 -8t5 -19l-6 -33q-2 -11 -10.5 -18.5t-18.5 -7.5h-311l-49 -351q-2 -11 -10.5 -18.5t-18.5 -7.5h-35q-9 0 -15 8t-5 18l49 351h-313q-11 0 -17.5 8t-5.5 18z " />
<glyph unicode="," horiz-adv-x="458" d="M61 -315q-10 17 13 32q10 7 22.5 17.5t35.5 35t43 62t30 80.5q10 50 4 78q-17 -10 -29 -10q-34 0 -51.5 19.5t-17.5 49.5q0 43 24.5 67.5t65.5 24.5q38 0 63 -36t25 -103q0 -70 -20.5 -132.5t-51.5 -103t-58.5 -66t-49.5 -36.5q-27 -13 -35 0z" />
<glyph unicode="-" horiz-adv-x="925" d="M438 500l2 22q1 12 9.5 19.5t19.5 7.5h410q11 0 17 -7.5t5 -19.5l-2 -22q-4 -27 -31 -27h-409q-10 0 -16.5 8t-4.5 19z" />
<glyph unicode="." horiz-adv-x="450" d="M164 51q0 39 28 65.5t64 26.5q30 0 49 -20t19 -51q0 -38 -27 -65t-64 -27q-30 0 -49.5 20.5t-19.5 50.5z" />
<glyph unicode="/" horiz-adv-x="634" d="M24.5 8q-5.5 8 0.5 21l593 1388q7 17 27 17h33q13 0 18.5 -8.5t-0.5 -20.5l-596 -1387q-6 -18 -26 -18h-31q-13 0 -18.5 8z" />
<glyph unicode="0" horiz-adv-x="1228" d="M332 518q0 267 68.5 470.5t197.5 316t301 112.5q177 0 272 -144t95 -394q0 -267 -68.5 -470.5t-197.5 -316t-302 -112.5q-177 0 -271.5 143.5t-94.5 394.5zM422 522q0 -216 74.5 -337.5t214.5 -121.5q142 0 247.5 101.5t160.5 284t55 423.5q0 214 -74 336.5t-213 122.5 q-142 0 -248 -102t-161.5 -284.5t-55.5 -422.5z" />
<glyph unicode="1" horiz-adv-x="614" d="M242 1087q-10 13 8 31l325 277h41q8 0 13 -7.5t4 -17.5l-189 -1343q-2 -11 -11 -19t-19 -8h-41q-10 0 -17.5 8t-5.5 19l178 1212h-2l-229 -188q-17 -13 -29 2z" />
<glyph unicode="2" horiz-adv-x="989" d="M25 25l4 36l559 545q134 129 198 234t64 217q0 53 -14.5 99.5t-44.5 85t-82 61t-121 22.5q-146 0 -291 -166q-20 -24 -39 -8l-31 25q-17 14 2 36q6 8 17 22t48 49t77.5 61.5t101.5 48.5t123 22q171 0 261.5 -99t90.5 -245q0 -77 -21 -145.5t-67 -135t-90.5 -116.5 t-120.5 -125l-473 -465h600q10 0 17.5 -8t5.5 -19l-4 -30q-1 -10 -10.5 -18.5t-18.5 -8.5h-719q-10 0 -16 7.5t-6 17.5z" />
<glyph unicode="3" horiz-adv-x="1032" d="M102 172q-9 17 7 29l36 24q7 6 17 3t16 -13q12 -20 21 -33t34.5 -38.5t53 -41t74 -28.5t100.5 -13q152 0 257 97t105 248q0 82 -43.5 143.5t-105.5 90t-129 28.5h-174q-16 0 -20.5 5.5t-2.5 16.5l6 41q3 25 31 25h164q59 0 118.5 22.5t108 63t79 103.5t30.5 136 q0 108 -65 177t-167 69q-159 0 -304 -148l-5 -5q-16 -16 -33 0l-26 28q-7 6 -6.5 16.5t8.5 18.5q6 7 18 19t50.5 43t80 54.5t103.5 42.5t123 19q142 0 231.5 -87.5t89.5 -225.5q0 -136 -74.5 -239t-181.5 -150v-4q77 -30 135 -111.5t58 -183.5q0 -183 -132.5 -308.5 t-338.5 -125.5q-235 0 -347 192z" />
<glyph unicode="4" horiz-adv-x="1097" d="M16 344l4 41l898 1032h32q19 0 17 -24l-138 -994h142q11 0 17 -7t5 -17l-4 -27q-1 -10 -10 -18t-18 -8h-144l-41 -295q-4 -27 -28 -27h-41q-25 0 -21 29l39 290h-680q-17 0 -24 6.5t-5 18.5zM139 401h602l121 834z" />
<glyph unicode="5" horiz-adv-x="1042" d="M152 172q-9 18 6 29l39 24q18 14 32 -10q12 -20 20.5 -32.5t34 -38.5t53 -41.5t73.5 -28.5t100 -13q109 0 201.5 63.5t145 166.5t52.5 219q0 129 -74 205t-219 76h-301q-18 0 -26.5 13.5t-5.5 29.5l73 534q2 11 10.5 19t20.5 8h576q9 0 15 -8.5t5 -18.5l-4 -33 q-2 -11 -10.5 -18.5t-18.5 -7.5h-516l-61 -432h256q185 0 281 -94.5t96 -270.5q0 -142 -67.5 -264.5t-184.5 -195t-254 -72.5q-236 0 -348 192z" />
<glyph unicode="6" horiz-adv-x="1054" d="M229 444q0 132 31.5 253.5t80.5 212.5t118 172.5t135.5 137t142 103.5t128 73.5t102.5 45.5q19 6 28 -23l9 -22q10 -26 -27 -39q-41 -15 -95 -42.5t-133 -81.5t-148 -118.5t-134 -160.5t-98 -201h2q39 47 137.5 97t216.5 50q144 0 245 -107.5t101 -277.5q0 -108 -41 -208 t-108 -171t-155 -114t-179 -43q-119 0 -201.5 63.5t-120 166t-37.5 234.5zM317 455q0 -78 17 -147.5t50.5 -125.5t89 -88.5t126.5 -32.5q95 0 183 60t142 162.5t54 218.5q0 136 -77 224.5t-193 88.5q-60 0 -120 -21.5t-100.5 -48t-78.5 -60.5t-51.5 -49.5t-20.5 -25.5 q-21 -59 -21 -155z" />
<glyph unicode="7" horiz-adv-x="864" d="M235.5 19q1.5 7 4.5 14l702 1276h-661q-15 0 -21.5 6t-3.5 24l4 31q3 25 31 25h745q12 0 18.5 -9t6.5 -20v-12l-723 -1329q-14 -25 -33 -25h-55q-9 0 -12.5 6t-2 13z" />
<glyph unicode="8" horiz-adv-x="1097" d="M205 309q0 78 28 147.5t74 119.5t101.5 84t115.5 51q0 2 2 4q-82 29 -137 106.5t-55 177.5q0 110 51.5 203t151.5 151t229 58q158 0 247 -91.5t89 -229.5q0 -137 -85 -237.5t-200 -137.5v-4q94 -28 158.5 -108t64.5 -193q0 -196 -132.5 -313t-344.5 -117 q-165 0 -261.5 88t-96.5 241zM293 324q0 -130 78.5 -198.5t203.5 -68.5q158 0 264.5 89t106.5 247q0 105 -76 182t-206 89q-164 -15 -267.5 -112t-103.5 -228zM422 1014q0 -110 67 -175.5t189 -74.5q153 12 242.5 95.5t89.5 219.5q0 107 -68.5 180.5t-189.5 73.5 q-96 0 -173 -46.5t-117 -119t-40 -153.5z" />
<glyph unicode="9" horiz-adv-x="1052" d="M270 889q0 108 41 208t108.5 171t155.5 114t179 43q90 0 159.5 -36t112 -100t64.5 -147t22 -181q0 -132 -31.5 -253.5t-80.5 -212.5t-118 -172.5t-135.5 -137.5t-141.5 -103.5t-127.5 -73t-102.5 -45.5q-20 -6 -27 14l-10 31q-6 16 1 24t26 15q41 15 95 42.5t133 81.5 t148 118.5t134 160.5t98 201h-2q-39 -47 -138 -97t-217 -50q-144 0 -245 107.5t-101 277.5zM362 903q0 -136 77.5 -224.5t193.5 -88.5q60 0 120 21.5t100.5 48t78.5 60.5t51.5 49.5t20.5 25.5q20 59 20 155q0 106 -28.5 192.5t-94.5 143.5t-160 57q-95 0 -182.5 -59.5 t-142 -162t-54.5 -218.5z" />
<glyph unicode=":" horiz-adv-x="534" d="M233 51q0 39 28.5 65.5t64.5 26.5q30 0 48.5 -20t18.5 -51q0 -38 -26.5 -65t-63.5 -27q-30 0 -50 20.5t-20 50.5zM330 748q0 37 29 64.5t65 27.5q30 0 49 -21t19 -51q0 -38 -27 -66t-64 -28q-30 0 -50.5 22t-20.5 52z" />
<glyph unicode=";" horiz-adv-x="538" d="M127 -315q-11 18 12 32q10 7 22.5 17.5t35.5 35t43 62t30 80.5q10 50 4 78q-17 -10 -28 -10q-34 0 -52 19.5t-18 49.5q0 43 24.5 67.5t65.5 24.5q38 0 63 -36t25 -103q0 -70 -20.5 -132.5t-51.5 -103t-58.5 -66t-49.5 -36.5q-27 -13 -35 0zM274 745q0 39 28.5 67t64.5 28 q30 0 48.5 -21t18.5 -51q0 -38 -26.5 -66t-63.5 -28q-30 0 -50 21t-20 50z" />
<glyph unicode="&#x3c;" horiz-adv-x="821" d="M78 467v4q0 17 24 33l717 459q12 8 22 2.5t9 -23.5l-4 -53q0 -16 -23 -31l-614 -391l506 -383q18 -13 12 -35l-6 -33q-3 -18 -15 -23t-24 3l-588 444q-16 13 -16 27z" />
<glyph unicode="=" horiz-adv-x="1081" d="M387 350l4 35q4 27 29 27h575q10 0 17.5 -8t5.5 -19l-4 -35q-4 -26 -31 -26h-575q-25 0 -21 26zM446 776l5 35q4 27 30 27h576q9 0 15 -8.5t5 -18.5l-4 -35q-2 -11 -10.5 -18.5t-18.5 -7.5h-575q-27 0 -23 26z" />
<glyph unicode="&#x3e;" horiz-adv-x="821" d="M-33 16l6 54q3 20 21 30l612 377l-504 393q-16 10 -12 33l6 39q3 18 16 24t25 -3l584 -459q16 -13 16 -31v-2q0 -17 -24 -31l-713 -444q-12 -8 -23 -3t-10 23z" />
<glyph unicode="?" horiz-adv-x="901" d="M448.5 1259q-1.5 8 0.5 12t8 13q4 7 12.5 18.5t39.5 40.5t67.5 51.5t97.5 41t129 18.5q120 0 191 -71.5t71 -174.5q0 -48 -15.5 -93.5t-34.5 -76.5t-55 -67t-58 -53.5t-64.5 -48.5t-53.5 -40q-84 -66 -92 -124l-16 -117q-3 -29 -29 -29h-35q-27 0 -24 29l16 119 q13 102 131 188q11 8 40.5 30t43 32t38.5 31t37.5 35t30 36t25.5 41t14.5 43.5t6.5 50.5q0 69 -47 122.5t-131 53.5q-56 0 -106 -17t-83 -42.5t-52.5 -45.5t-29.5 -36q-12 -20 -35 -4l-28 20q-9 6 -10.5 14zM487 51q0 39 27.5 65.5t63.5 26.5q31 0 51 -20t20 -51 q0 -38 -28.5 -65t-65.5 -27q-29 0 -48.5 20.5t-19.5 50.5z" />
<glyph unicode="@" horiz-adv-x="1861" d="M156 317q0 239 73 448.5t202.5 361.5t317 239.5t406.5 87.5q160 0 288 -55t211 -152.5t127 -228.5t44 -285q0 -77 -10.5 -158t-32.5 -167t-60.5 -161.5t-89.5 -136t-124 -95.5t-160 -35q-84 0 -128.5 44t-52.5 117q-38 -56 -115.5 -108.5t-172.5 -52.5 q-128 0 -206.5 100.5t-78.5 257.5q0 111 36.5 206.5t96.5 159.5t137 100t158 36q46 0 86 -11t65 -27.5t38 -28t20 -21.5l12 43q5 13 11 18.5t20 5.5h20q11 0 17.5 -8t5.5 -18l-74 -514q-29 -224 119 -224q114 0 202.5 97.5t133.5 248.5t45 324q0 140 -38 258t-111.5 206.5 t-189 138.5t-261.5 50q-196 0 -364.5 -79t-287 -217.5t-186 -333.5t-67.5 -420q0 -241 108.5 -429t292.5 -284q13 -6 14.5 -13t-6.5 -20l-18 -33q-12 -20 -31 -12q-202 102 -322 308.5t-120 471.5zM686 350q0 -127 57.5 -205.5t153.5 -78.5q54 0 101.5 22.5t78.5 57.5 t47.5 60.5t26.5 47.5l55 387q-1 4 -7 15t-21 29t-35.5 33t-54 26.5t-72.5 11.5q-133 0 -231.5 -113.5t-98.5 -292.5z" />
<glyph unicode="A" horiz-adv-x="1230" d="M-109 8.5q-3 8.5 3 20.5l768 1421q7 14 26 14h6q21 0 25 -14l362 -1425q8 -25 -22 -25h-53q-22 0 -27 18l-94 377h-692l-197 -377q-9 -18 -33 -18h-59q-10 0 -13 8.5zM240 475h622l-190 825h-6z" />
<glyph unicode="B" horiz-adv-x="1187" d="M274 27l195 1380q1 10 10.5 18.5t18.5 8.5h395q153 0 243.5 -87.5t90.5 -230.5q0 -137 -71.5 -240t-178.5 -149q86 -28 140 -101.5t54 -185.5q0 -193 -132 -316.5t-330 -123.5h-412q-10 0 -17.5 8t-5.5 19zM377 86h348q142 0 242 99t100 245q0 116 -77 184t-204 68h-325z M475 770h320q142 0 235.5 96.5t93.5 239.5q0 110 -64.5 173.5t-178.5 63.5h-326z" />
<glyph unicode="C" horiz-adv-x="1349" d="M266 616q0 173 63 329t168.5 267t248 176.5t296.5 65.5q264 0 424 -190q6 -7 5.5 -18.5t-7.5 -18.5l-34 -31q-18 -15 -35 2q-65 78 -159 121t-204 43q-128 0 -249.5 -59.5t-212 -158t-145 -235t-54.5 -282.5q0 -151 60 -275.5t170.5 -198t248.5 -73.5q208 0 399 172 q20 17 33 4l39 -43q6 -6 5 -16.5t-9 -18.5q-216 -198 -475 -198q-163 0 -295.5 85t-206.5 230.5t-74 320.5z" />
<glyph unicode="D" horiz-adv-x="1400" d="M274 27l195 1380q1 11 9.5 19t17.5 8h395q153 0 281 -84t201 -227t73 -312q0 -164 -62 -314.5t-165 -259t-242 -173t-287 -64.5h-395q-9 0 -15.5 8.5t-5.5 18.5zM379 88h305q130 0 251 56t210.5 151t143.5 229t54 283q0 151 -60 273.5t-171 194t-252 71.5h-305z" />
<glyph unicode="E" horiz-adv-x="1136" d="M274 27l195 1380q1 10 10.5 18.5t18.5 8.5h737q10 0 17 -8t5 -19l-4 -35q-1 -10 -10 -18t-20 -8h-664l-80 -566h574q10 0 17 -7.5t5 -18.5l-4 -35q-1 -10 -10.5 -18.5t-20.5 -8.5h-573l-86 -606h666q10 0 17 -8t5 -19l-6 -32q-2 -11 -10.5 -19t-18.5 -8h-737 q-10 0 -17.5 8t-5.5 19z" />
<glyph unicode="F" horiz-adv-x="1097" d="M274 27l195 1380q1 10 10.5 18.5t18.5 8.5h737q10 0 17 -8t5 -19l-4 -35q-1 -10 -10 -18t-20 -8h-664l-88 -623h582q10 0 17 -8t5 -19l-4 -34q-1 -10 -10.5 -18.5t-20.5 -8.5h-581l-88 -608q-6 -27 -31 -27h-43q-10 0 -17.5 8t-5.5 19z" />
<glyph unicode="G" horiz-adv-x="1402" d="M266 627q0 169 63.5 323t169.5 264t250 175t298 65q259 0 419 -190q6 -7 5.5 -18.5t-9.5 -18.5l-37 -33q-19 -19 -34 0q-63 80 -157 124t-204 44q-102 0 -201 -37.5t-181 -105.5t-144.5 -158t-97.5 -201.5t-35 -228.5q0 -152 59.5 -278t170 -200.5t249.5 -74.5 q64 0 128 13.5t109.5 32.5t81.5 38.5t54 33.5l18 13l49 362h-293q-16 0 -20 6t-2 21l6 41q2 13 7.5 19t21.5 6h366q10 0 17.5 -8t5.5 -17l-62 -440q-4 -38 -34 -64q-19 -16 -58 -38.5t-99.5 -50.5t-143 -47t-162.5 -19q-160 0 -291.5 85t-207 233.5t-75.5 328.5z" />
<glyph unicode="H" horiz-adv-x="1433" d="M274 27l195 1380q2 11 9.5 19t19.5 8h45q12 0 18 -8t4 -19l-90 -629h815l88 629q2 11 10 19t19 8h45q12 0 18.5 -8t4.5 -19l-195 -1380q-2 -11 -10.5 -19t-18.5 -8h-45q-10 0 -17 8t-5 19l94 665h-813l-94 -665q-2 -11 -10.5 -19t-20.5 -8h-43q-10 0 -17.5 8t-5.5 19z " />
<glyph unicode="I" horiz-adv-x="524" d="M274 27l193 1380q4 27 31 27h45q10 0 17 -8t5 -19l-192 -1380q-3 -12 -12.5 -19.5t-20.5 -7.5h-43q-10 0 -17.5 8t-5.5 19z" />
<glyph unicode="J" horiz-adv-x="765" d="M-188 133q-10 19 6 35l28 22q22 18 35 0t22.5 -30.5t29 -32t39.5 -31.5t50.5 -21t63.5 -9q115 0 201.5 94t111.5 270l138 977q2 12 10 19.5t20 7.5h43q10 0 17.5 -8t5.5 -19l-137 -975q-31 -214 -141.5 -333t-276.5 -119q-57 0 -105.5 17t-80.5 44.5t-49.5 48.5t-30.5 43 z" />
<glyph unicode="K" horiz-adv-x="1126" d="M274 27l195 1376q1 13 11 22t22 9h39q13 0 20.5 -8.5t5.5 -22.5l-90 -633l707 649q19 15 41 15h61q11 0 15.5 -6.5t2 -14.5t-9.5 -14l-729 -670l559 -694q9 -7 1.5 -21t-27.5 -14h-49q-23 0 -41 20l-541 680l-94 -673q-3 -27 -35 -27h-41q-26 0 -23 27z" />
<glyph unicode="L" horiz-adv-x="913" d="M274 27l195 1380q1 10 10.5 18.5t18.5 8.5h47q9 0 15 -8.5t5 -18.5l-186 -1321h579q27 0 23 -27l-6 -36q-1 -10 -9.5 -16.5t-19.5 -6.5h-649q-10 0 -17.5 8t-5.5 19z" />
<glyph unicode="M" horiz-adv-x="1607" d="M49 27l465 1413q4 14 21 14h18q11 0 14 -14l193 -1233h4l563 1233q6 14 19 14h18q6 0 11 -4t5 -10l68 -1413q0 -27 -27 -27h-49q-9 0 -14.5 7t-5.5 16l-41 1171h-4l-541 -1198q-8 -16 -25 -16h-8q-18 0 -20 16l-191 1198h-4l-375 -1171q-8 -23 -26 -23h-49q-27 0 -19 27z " />
<glyph unicode="N" horiz-adv-x="1460" d="M274 27l197 1400q7 27 33 27h31l702 -1272h4l168 1225q1 10 10.5 18.5t20.5 8.5h41q10 0 17 -8t5 -19l-196 -1401q-3 -26 -35 -26h-33l-698 1275h-2l-172 -1228q-4 -27 -52 -27h-18q-10 0 -17.5 8t-5.5 19z" />
<glyph unicode="O" horiz-adv-x="1570" d="M266 614q0 170 62 326t166.5 268.5t248 179t299.5 66.5q119 0 225.5 -50.5t181.5 -137t119 -204.5t44 -249q0 -170 -62 -325t-166.5 -266t-248 -176.5t-299.5 -65.5q-159 0 -290 84.5t-205.5 230t-74.5 319.5zM360 627q0 -153 61.5 -280t174 -202t252.5 -75 q129 0 251.5 58t214.5 155.5t148 234t56 283.5q0 154 -61.5 282.5t-174 204.5t-252.5 76q-129 0 -252 -58.5t-214.5 -157t-147.5 -235.5t-56 -286z" />
<glyph unicode="P" horiz-adv-x="1132" d="M274 27l195 1380q1 10 10.5 18.5t18.5 8.5h399q147 0 251.5 -117.5t104.5 -282.5q0 -140 -67 -261.5t-179 -192t-239 -70.5h-330l-67 -483q-2 -11 -12 -19t-25 -8h-37q-10 0 -17.5 8t-5.5 19zM453 604h323q147 0 262 125.5t115 294.5q0 132 -78 222.5t-198 90.5h-322z " />
<glyph unicode="Q" horiz-adv-x="1572" d="M266 614q0 170 62 326t166.5 268.5t248 179t299.5 66.5q119 0 225.5 -50.5t181.5 -137t119 -204.5t44 -249q0 -268 -142.5 -481t-373.5 -305l164 -392q3 -8 -2.5 -19t-16.5 -11h-67q-18 0 -25 20l-150 375q-73 -20 -163 -20q-159 0 -290 84.5t-205.5 230t-74.5 319.5z M362 627q0 -153 61 -280t173 -202t252 -75q129 0 251.5 58t214.5 155.5t148 234t56 283.5q0 154 -61.5 282.5t-174 204.5t-252.5 76q-129 0 -251.5 -58.5t-214 -157t-147 -235.5t-55.5 -286z" />
<glyph unicode="R" horiz-adv-x="1236" d="M274 27l195 1380q2 11 9.5 19t19.5 8h460q146 0 249.5 -110.5t103.5 -270.5q0 -174 -103 -309t-260 -177l191 -530q7 -12 1 -24.5t-22 -12.5h-59q-19 0 -25 18l-188 537q-25 -2 -76 -2h-326l-73 -526q-2 -11 -12 -19t-25 -8h-37q-10 0 -17.5 8t-5.5 19zM459 639h383 q70 0 136.5 31.5t117 84.5t81.5 128t31 157q0 127 -76 213t-192 86h-383z" />
<glyph unicode="S" horiz-adv-x="1038" d="M145.5 170.5q1.5 8.5 10.5 19.5l24 25q23 30 43 4q136 -153 297 -153q147 0 254 89.5t107 219.5q0 32 -8 60.5t-20.5 52t-36 46.5t-45.5 41t-58 39.5t-65 37t-75 38.5q-76 38 -124.5 69t-93.5 74.5t-66 97.5t-21 122q0 57 16 112.5t52 108t88 92.5t130.5 64t172.5 24 q50 0 99.5 -10.5t84.5 -26t62.5 -31t40.5 -26.5l14 -10q19 -19 2 -43l-18 -25q-20 -27 -45 -10l-5 4l-10 7.5t-16 10.5t-21 12.5t-25 14t-29 13.5t-32.5 12t-35.5 10.5t-38 7t-40 2.5q-86 0 -155.5 -28.5t-110.5 -74t-62.5 -97.5t-21.5 -105q0 -52 18 -94.5t55.5 -76.5 t79.5 -60t105 -56q90 -43 148 -77.5t109 -81t75 -103t24 -127.5q0 -118 -64 -211.5t-170 -143.5t-233 -50q-202 0 -356 167q-7 7 -9.5 11t-1 12.5z" />
<glyph unicode="T" horiz-adv-x="864" d="M240 1376l4 31q1 12 10 19.5t18 7.5h791q12 0 18 -8t4 -19l-4 -35q-2 -11 -10 -18.5t-20 -7.5h-349l-184 -1319q-2 -11 -11.5 -19t-23.5 -8h-39q-10 0 -17 8t-5 19l186 1319h-348q-23 0 -20 30z" />
<glyph unicode="U" horiz-adv-x="1363" d="M377 522l125 885q1 10 10 18.5t18 8.5h45q10 0 17.5 -8t5.5 -19l-123 -875q-8 -52 -8 -99q0 -136 65 -231q87 -128 265 -128t301 127t151 329l125 877q3 27 31 27h43q9 0 15 -8.5t5 -18.5l-122 -885q-34 -239 -188 -390.5t-376 -151.5q-210 0 -324 153q-89 119 -88 289 q0 48 7 100z" />
<glyph unicode="V" horiz-adv-x="1222" d="M272 1407q-7 27 21 27h55q15 0 19 -15l311 -1247h4l672 1247q10 15 24 15h58q30 0 14 -29l-762 -1407q-11 -18 -26 -18h-9q-18 0 -22 18z" />
<glyph unicode="W" horiz-adv-x="1673" d="M397 1407q-3 27 27 27h49q17 0 21 -23l135 -1169h4l491 1194q9 18 23 18h12q18 0 21 -18l163 -1192h5l460 1167q8 23 27 23h53q29 0 21 -27l-566 -1413q-7 -14 -18 -14h-14q-16 0 -19 14l-168 1218h-4l-499 -1218q-6 -14 -19 -14h-14q-19 0 -19 14z" />
<glyph unicode="X" horiz-adv-x="1073" d="M-14 9.5q-3 9.5 6 21.5l500 704l-285 668q-5 12 1 21.5t21 9.5h50q15 0 22 -13l254 -610h2l420 610q8 13 29 13h63q15 0 19 -9.5t-5 -21.5l-475 -670l305 -702q6 -12 0.5 -21.5t-20.5 -9.5h-53q-20 0 -25 12l-274 639h-2l-443 -639q-9 -12 -26 -12h-66q-15 0 -18 9.5z " />
<glyph unicode="Y" horiz-adv-x="1048" d="M224.5 1426.5q5.5 7.5 19.5 7.5h57q17 0 23 -13l327 -628l508 628q13 13 29 13h67q15 0 20 -9.5t-5 -21.5l-578 -705l-94 -671q-1 -10 -10.5 -18.5t-20.5 -8.5h-41q-25 0 -22 27l92 669l-371 711q-6 12 -0.5 19.5z" />
<glyph unicode="Z" horiz-adv-x="1005" d="M-20 25l4 36l909 1276v6h-645q-24 0 -21 27l4 45q3 19 27 19h758q26 0 22 -25l-4 -35l-911 -1278v-6h665q12 0 18.5 -8t4.5 -19l-4 -36q-2 -11 -10.5 -19t-20.5 -8h-772q-28 0 -24 25z" />
<glyph unicode="[" horiz-adv-x="628" d="M4 -588l281 1995q2 11 11 19t19 8h357q10 0 17 -8t5 -19l-4 -31q-2 -11 -10.5 -18.5t-20.5 -7.5h-294l-265 -1880h295q10 0 17.5 -8t5.5 -19l-4 -31q-2 -11 -10.5 -18.5t-20.5 -7.5h-356q-11 0 -17.5 8t-5.5 18z" />
<glyph unicode="\" horiz-adv-x="620" d="M346 1413q-3 21 19 21h36q20 0 23 -17l205 -1397q3 -20 -19 -20h-35q-19 0 -22 18z" />
<glyph unicode="]" horiz-adv-x="628" d="M-217 -588l4 31q1 10 10.5 18.5t20.5 8.5h293l264 1880h-293q-11 0 -17.5 8t-5.5 18l4 31q1 10 10.5 18.5t20.5 8.5h355q10 0 17 -8t5 -19l-281 -1995q-1 -10 -10 -18t-20 -8h-355q-10 0 -17 7.5t-5 18.5z" />
<glyph unicode="^" horiz-adv-x="966" d="M209 828.5q-1 9.5 10 23.5l469 596q10 14 23 14h2q11 0 18 -14l309 -596q8 -12 3.5 -22.5t-19.5 -10.5h-43q-23 0 -31 17l-250 491h-2l-387 -491q-13 -17 -32 -17h-54q-15 0 -16 9.5z" />
<glyph unicode="_" horiz-adv-x="735" d="M-70 -68l2 21q2 11 10.5 19t20.5 8h576q10 0 17 -8t5 -19l-4 -21q-1 -10 -9.5 -17t-19.5 -7h-575q-26 0 -23 24z" />
<glyph unicode="`" horiz-adv-x="557" d="M387 1339l25 39q6 10 16.5 11.5t17.5 -5.5l271 -184q15 -10 8 -29l-12 -18q-12 -15 -33 -6l-291 162q-16 9 -2 30z" />
<glyph unicode="a" d="M143 344q0 134 57 248.5t153 181t208 66.5q47 0 89 -12t69 -30.5t42.5 -32t22.5 -24.5l17 56q5 22 28 22h23q9 0 15 -8t5 -18l-106 -766q-2 -11 -10.5 -19t-18.5 -8h-22q-12 0 -19 8t-6 21l4 69q-17 -20 -47.5 -43.5t-92.5 -49t-126 -25.5q-124 0 -204.5 105t-80.5 259z M233 356q0 -123 58 -208t155 -85q42 0 83.5 15t70.5 35t53 42.5t35.5 36.5t13.5 19l62 430q-3 5 -9.5 15t-24.5 28t-40 32.5t-57 26t-74 11.5q-139 0 -232.5 -116.5t-93.5 -281.5z" />
<glyph unicode="b" horiz-adv-x="925" d="M156 27l194 1380q2 11 9.5 19t17.5 8h39q10 0 17 -8t5 -19l-92 -649q4 3 11.5 8.5t32 20t50.5 25t65 19.5t77 9q130 0 217.5 -105t87.5 -258q0 -134 -55 -248.5t-148.5 -181.5t-202.5 -67q-49 0 -93 14.5t-72 35.5t-45 39t-23 31l-17 -73q-9 -27 -32 -27h-21q-10 0 -17 8 t-5 19zM270 207q1 -5 8 -18.5t24.5 -35.5t40.5 -41.5t61 -34t81 -14.5q127 0 219.5 119t92.5 281q0 125 -65.5 207t-172.5 82q-56 0 -112 -21.5t-83 -42.5l-28 -22z" />
<glyph unicode="c" horiz-adv-x="866" d="M143 350q0 106 37 198t99 155.5t144 100t171 36.5q92 0 155 -39t97 -88q11 -16 -10 -37l-17 -14q-22 -19 -41 4q-13 17 -33.5 34t-64.5 35.5t-94 18.5q-137 0 -243.5 -115.5t-106.5 -278.5q0 -127 70 -212t177 -85q123 0 231 120l5 5q22 22 39 5l24 -23q18 -14 2 -33 q-18 -23 -44 -46t-65 -50t-92.5 -44t-109.5 -17q-135 0 -232.5 107t-97.5 263z" />
<glyph unicode="d" horiz-adv-x="925" d="M147 344q0 208 123 352t305 144q38 0 73.5 -8.5t59 -20.5t41.5 -24t27 -21l8 -8l93 649q3 15 8.5 21t17.5 6h39q9 0 15.5 -8.5t5.5 -18.5l-193 -1380q-2 -11 -10.5 -19t-18.5 -8h-22q-12 0 -19 8t-6 21l4 69q-17 -20 -47.5 -43.5t-92.5 -49t-126 -25.5q-124 0 -204.5 105 t-80.5 259zM238 350q0 -122 58 -204.5t155 -82.5q42 0 83.5 15t70.5 35t53 42.5t35.5 36.5t13.5 19l65 451q-3 4 -8.5 10t-25 22t-41 28t-56 22t-70.5 10q-139 0 -236 -117t-97 -287z" />
<glyph unicode="e" horiz-adv-x="847" d="M143 342q0 134 53.5 247.5t152.5 182t222 68.5q109 0 182.5 -58.5t73.5 -152.5q0 -62 -33 -109.5t-85 -73t-115.5 -42t-127.5 -20.5q-63 -6 -115 -6h-20q-39 0 -65 2l-33 3q-2 -21 -2 -41q0 -108 55 -186q65 -92 183 -93q63 0 123 25.5t100 54.5q22 15 33 -4l18 -30 q11 -18 -6 -33q-31 -29 -112.5 -62.5t-173.5 -33.5q-139 0 -223.5 103.5t-84.5 258.5zM244 461q52 -6 106 -6q34 1 66 3q88 6 159.5 21t117.5 53t46 93t-50.5 92t-127.5 37q-115 0 -202.5 -82.5t-114.5 -210.5z" />
<glyph unicode="f" horiz-adv-x="598" d="M66 -588l188 1327h-111q-13 0 -18.5 8.5t-3.5 18.5l4 27q1 10 10.5 18t18.5 8h110l41 291q24 171 110.5 257.5t217.5 86.5q63 0 116 -27t78 -61q12 -19 -2 -33l-24 -24q-17 -17 -35 0q-22 22 -59.5 42.5t-73.5 20.5q-95 0 -157.5 -67.5t-82.5 -204.5l-39 -281h262 q26 0 23 -24l-4 -31q-4 -25 -29 -25h-262l-188 -1327q-1 -10 -10.5 -18t-20.5 -8h-37q-10 0 -17 7.5t-5 18.5z" />
<glyph unicode="g" d="M76 -397q-20 19 2 41l18 18q20 20 43 -2l5 -6l10.5 -10.5t14 -12.5t17.5 -15t20.5 -16t24 -15.5t26.5 -13.5t29 -11.5t31 -7.5t33 -3q224 0 271 322l24 186q-24 -24 -85.5 -50.5t-141.5 -26.5q-142 0 -228 104t-86 260q0 134 57 248.5t153 181t208 66.5q47 0 89 -12 t69 -30.5t42.5 -32t22.5 -24.5l17 56q6 22 29 22h22q9 0 15.5 -8t5.5 -18l-127 -936q-15 -106 -49.5 -183t-84 -121t-106 -64.5t-123.5 -20.5q-49 0 -96.5 16t-82.5 41.5t-55 43.5t-34 34zM195 354q0 -125 66 -208t177 -83q55 0 109 23.5t77.5 43t32.5 30.5l68 479 q-3 6 -9.5 15.5t-24.5 28t-40 33.5t-57 26.5t-74 11.5q-139 0 -232 -117.5t-93 -282.5z" />
<glyph unicode="h" horiz-adv-x="944" d="M156 27l194 1380q2 11 10.5 19t20.5 8h35q10 0 17 -8t5 -19l-98 -694q32 37 110 82t173 45q135 0 201 -98q47 -70 47 -181q0 -44 -7 -96l-61 -438q-1 -10 -10.5 -18.5t-20.5 -8.5h-37q-10 0 -17 8t-5 19l61 438q6 44 6 82q0 83 -30 133q-44 74 -142 74q-53 0 -106 -20.5 t-91 -50t-57.5 -47.5t-27.5 -28l-82 -581q-3 -27 -31 -27h-39q-10 0 -15 8t-3 19z" />
<glyph unicode="i" horiz-adv-x="395" d="M152 27l108 766q1 10 10.5 18t20.5 8h37q10 0 17 -7.5t5 -18.5l-108 -766q-3 -27 -29 -27h-43q-10 0 -15 8t-3 19zM307 1280q0 32 23.5 56t54.5 24q24 0 40.5 -18.5t16.5 -45.5q0 -31 -23 -53t-54 -22q-26 0 -42 17t-16 42z" />
<glyph unicode="j" horiz-adv-x="393" d="M-793 -518l25 31q6 9 16 9t17 -9q69 -64 149 -64q87 0 144 66t77 204l152 1074q2 11 10.5 18.5t18.5 7.5h34q11 0 17.5 -8t5.5 -18l-149 -1074q-51 -354 -318 -354q-63 0 -117 28t-82 60q-11 14 0 29zM-168 1280q0 32 23 56t53 24q26 0 42.5 -18.5t16.5 -45.5 q0 -30 -23.5 -52.5t-54.5 -22.5q-26 0 -41.5 17t-15.5 42z" />
<glyph unicode="k" horiz-adv-x="804" d="M156 27l194 1380q2 11 9.5 19t17.5 8h39q10 0 17 -8t5 -19l-129 -918l416 318q15 12 33 12h67q15 0 16.5 -12t-10.5 -21l-446 -335l371 -416q10 -11 3 -23t-20 -12h-47q-25 0 -39 16l-354 408l-55 -397q-3 -27 -31 -27h-39q-10 0 -15 8t-3 19z" />
<glyph unicode="l" horiz-adv-x="397" d="M156 27l194 1380q2 11 9 19t16 8h43q9 0 16 -8.5t6 -18.5l-194 -1380q-3 -27 -31 -27h-41q-10 0 -15 8t-3 19z" />
<glyph unicode="m" horiz-adv-x="1437" d="M156 27l106 766q1 10 10.5 18t20.5 8h24q19 0 19 -20l-2 -82q29 39 101 81t169 42q159 0 213 -144q17 22 55.5 52.5t109 61t138.5 30.5q142 0 202 -100q42 -70 42 -178q0 -45 -8 -97l-62 -438q-2 -11 -11 -19t-19 -8h-41q-9 0 -14.5 7.5t-4.5 19.5l62 438q7 46 7 84 q-1 81 -29 131q-42 74 -138 74q-39 0 -79 -13t-64 -26t-56 -40.5t-38 -33.5t-27 -29q4 -25 4 -54q0 -42 -8 -93l-62 -438q-1 -10 -10.5 -18.5t-20.5 -8.5h-38q-11 0 -16.5 7.5t-4.5 19.5l62 438q7 46 7 84q-1 81 -29 131q-42 74 -136 74q-54 0 -104.5 -19.5t-83 -47 t-51 -47.5t-23.5 -30l-82 -583q-7 -27 -31 -27h-41q-10 0 -15 8t-3 19z" />
<glyph unicode="n" horiz-adv-x="942" d="M152 27l108 766q1 10 10.5 18t20.5 8h20q23 0 23 -20l-4 -82q32 37 111.5 80t176.5 43q145 0 206 -100q43 -71 43 -179q0 -45 -7 -96l-61 -438q-1 -10 -10.5 -18.5t-20.5 -8.5h-37q-10 0 -17 8t-5 19l61 438q6 44 6 81q0 82 -30 134q-44 74 -146 74q-51 0 -103 -20 t-89.5 -49t-58 -47.5t-27.5 -27.5l-82 -583q-3 -27 -31 -27h-39q-10 0 -15 8t-3 19z" />
<glyph unicode="o" horiz-adv-x="937" d="M143 350q0 131 58.5 244t159.5 179.5t219 66.5q132 0 222.5 -108.5t90.5 -262.5q0 -132 -59 -244.5t-159 -178.5t-216 -66q-133 0 -224.5 108t-91.5 262zM233 358q0 -125 66 -210t170 -85q132 0 232 118t100 280q0 124 -65.5 208.5t-168.5 84.5q-133 0 -233.5 -117.5 t-100.5 -278.5z" />
<glyph unicode="p" horiz-adv-x="925" d="M-20 -588l194 1381q1 12 10.5 19t20.5 7h22q23 0 23 -20l-2 -56q16 16 44 35t87 40.5t119 21.5q131 0 216 -106t85 -259q0 -206 -129 -350.5t-308 -144.5q-79 0 -132.5 29t-71.5 54l-90 -651q-1 -10 -10.5 -18t-20.5 -8h-35q-10 0 -17 7.5t-5 18.5zM176 164 q1 -3 8.5 -13.5t24 -25.5t38 -28.5t53 -23.5t65.5 -10q144 0 243 118.5t99 287.5q0 123 -61 204t-167 81q-39 0 -77 -11t-65 -26t-49 -32t-32.5 -28t-13.5 -16z" />
<glyph unicode="q" d="M143 344q0 134 55.5 248t152 181t210.5 67q47 0 89 -12t69 -30.5t42.5 -32t22.5 -24.5l17 56q5 22 28 22h23q9 0 15 -8t5 -18l-192 -1381q-1 -10 -10.5 -18t-18.5 -8h-37q-10 0 -17 7.5t-5 18.5l92 645q-24 -24 -85.5 -50.5t-141.5 -26.5q-135 0 -224.5 105t-89.5 259z M233 354q0 -125 66.5 -208t177.5 -83q55 0 109 23.5t77.5 43t32.5 30.5l68 479q-3 6 -9.5 15.5t-24.5 28t-40 33.5t-57 26.5t-74 11.5q-139 0 -232.5 -117.5t-93.5 -282.5z" />
<glyph unicode="r" horiz-adv-x="624" d="M152 27l108 766q1 10 10.5 18t18.5 8h26q8 0 14.5 -6t6.5 -16l-4 -78q23 36 89.5 78.5t156.5 42.5q58 0 108 -25q28 -14 16 -37l-20 -41q-13 -23 -35 -10q-45 27 -88 27q-49 0 -95 -20t-75 -48.5t-44.5 -47.5t-20.5 -28l-82 -583q-3 -27 -29 -27h-43q-10 0 -15 8t-3 19z " />
<glyph unicode="s" horiz-adv-x="708" d="M86 100l27 33q5 8 15 9t19 -7q11 -12 30.5 -27t63 -32t89.5 -17q82 0 138 46.5t56 113.5q0 23 -10 43.5t-22.5 35t-40.5 32t-47 27.5t-60 30q-93 45 -142.5 94.5t-49.5 124.5q0 92 69.5 163t200.5 71q115 0 201 -66q21 -14 4 -37l-19 -26q-16 -23 -37 -6q-71 51 -157 51 q-83 0 -128.5 -45.5t-45.5 -98.5q0 -49 37.5 -82.5t113.5 -70.5q35 -17 50 -24t44.5 -23t43 -27t33.5 -29t29 -35.5t16 -41t7 -50.5q0 -108 -83 -178.5t-207 -70.5q-137 0 -234 92q-15 15 -4 28z" />
<glyph unicode="t" horiz-adv-x="632" d="M195 766l4 33q3 20 26 20h88l31 223q1 12 10.5 19.5t20.5 7.5l35 2q10 0 17 -8t5 -19l-31 -225h248q12 0 18.5 -7.5t4.5 -18.5l-4 -27q-1 -12 -9.5 -19.5t-19.5 -7.5h-250l-74 -522q-7 -37 -7 -65t6 -46q12 -38 65 -38q76 0 172 57q19 12 31 -8l14 -27q11 -20 -10 -35 q-108 -75 -224 -75q-68 0 -102.5 31t-37.5 82q-1 14 -1 29q0 40 6 89l76 528h-90q-25 0 -18 27z" />
<glyph unicode="u" d="M217 352l62 441q1 10 10 18t18 8h39q11 0 17.5 -8t5.5 -18l-64 -441q-6 -44 -6 -81q1 -83 31 -134q44 -74 145 -74q43 0 85 14.5t71 34t53.5 42t36 36t14.5 19.5l82 584q3 26 29 26h39q9 0 15 -8t5 -18l-106 -766q-1 -10 -10.5 -18.5t-20.5 -8.5h-25q-20 0 -20 25l4 73 q-24 -35 -99 -76.5t-171 -41.5q-145 0 -205 98q-42 69 -42 177q0 45 7 97z" />
<glyph unicode="v" horiz-adv-x="770" d="M125 788q-8 31 18 31h43q18 0 23 -18l162 -658h2l356 658q10 18 29 18h47q13 0 16.5 -9.5t-4.5 -21.5l-430 -790q-9 -18 -27 -18h-10q-7 0 -12.5 5.5t-7.5 12.5z" />
<glyph unicode="w" horiz-adv-x="1138" d="M207 786q-3 14 2.5 23.5t17.5 9.5h41q20 0 23 -18l82 -617h4l301 637q8 19 24 19h9q15 0 18 -19l129 -637h2l252 617q8 18 29 18h47q27 0 12 -33l-334 -788q-9 -18 -24 -18h-8q-14 0 -17 18l-131 659h-2l-315 -659q-9 -18 -25 -18h-8q-14 0 -17 18z" />
<glyph unicode="x" horiz-adv-x="792" d="M-14 9q-4 9 6 20l325 395l-202 367q-7 11 -1.5 19.5t17.5 8.5h51q16 0 25 -18l166 -309h2l252 309q15 18 32 18h58q13 0 16.5 -8.5t-6.5 -19.5l-309 -373l215 -389q7 -11 1 -20t-18 -9h-55q-13 0 -22 18l-177 336h-2l-268 -336q-15 -18 -33 -18h-57q-12 0 -16 9z" />
<glyph unicode="y" horiz-adv-x="835" d="M-74.5 -607q-4.5 7 2.5 21l330 594l-238 778q-3 13 2.5 23t18.5 10h43q16 0 22 -18l205 -695h4l381 695q9 18 29 18h45q13 0 17.5 -10.5t-3.5 -22.5l-770 -1384q-10 -16 -28 -16h-43q-13 0 -17.5 7z" />
<glyph unicode="z" horiz-adv-x="702" d="M-10 23l4 22l522 690v2h-369q-10 0 -16 8t-4 19l4 29q6 26 27 26h475q15 0 20.5 -12.5t-4.5 -26.5l-520 -694v-4h369q25 0 22 -27l-4 -28q-2 -11 -10.5 -19t-18.5 -8h-477q-24 0 -20 23z" />
<glyph unicode="{" horiz-adv-x="696" d="M59 403l4 23q3 14 23 20q19 5 41 17.5t47.5 33.5t44.5 56.5t25 77.5l45 327q15 109 51.5 196t84 142t107.5 91.5t118 51.5t118 15q12 0 19 -5t6 -15l-7 -35q-3 -16 -20 -19q-159 -13 -260 -116.5t-129 -307.5l-45 -325q-7 -50 -29 -94t-48 -70.5t-45 -42t-28 -18.5v-3 l6 -4q5 -4 9 -7.5l12 -10.5t14 -14t14 -18t13.5 -22t11.5 -26t7.5 -30t3 -34.5t-2.5 -39.5l-47 -334q-28 -204 44 -308t227 -116q19 -4 16 -25l-4 -26q-3 -23 -31 -23q-61 0 -114.5 15.5t-103.5 50.5t-80.5 92.5t-45 141t3.5 196.5l47 336q17 121 -91 174q-4 2 -11 5l-6 3 q-19 9 -15 24z" />
<glyph unicode="|" horiz-adv-x="389" d="M0 -590l297 2118q7 26 31 26h12q10 0 15.5 -7.5t2.5 -18.5l-297 -2118q-1 -10 -9 -17t-19 -7h-10q-11 0 -17.5 7t-5.5 17z" />
<glyph unicode="}" horiz-adv-x="704" d="M-225 -612l4 30q3 22 24 25q156 12 259.5 120t132.5 300l47 340q6 48 26.5 89t48 67t41.5 37t27 18v2q-8 3 -22 17.5t-31.5 40.5t-26.5 69.5t-2 93.5l51 319q30 203 -42 306t-228 116q-14 3 -14 19l6 37q3 20 30 20q60 0 113.5 -15.5t103.5 -50.5t80 -92.5t44 -141 t-5 -196.5l-49 -327q-6 -43 3.5 -78t29 -56t38 -33.5t36.5 -17.5q16 -5 16 -20l-2 -27q0 -11 -22 -20q-24 -9 -39.5 -17t-45.5 -29t-49.5 -55.5t-25.5 -80.5l-49 -336q-16 -109 -53 -196t-85 -142t-108 -91.5t-118.5 -51.5t-119.5 -15q-12 0 -18.5 6.5t-5.5 16.5z" />
<glyph unicode="~" horiz-adv-x="1089" d="M256 510q-12 12 0 33q4 8 12 21t34.5 46.5t55.5 59t74.5 46.5t91.5 21q95 0 185 -110q14 -17 19.5 -23.5t21.5 -22.5t27.5 -23t28.5 -14t34 -7q103 0 196 155q13 21 35 6l31 -18q12 -9 0 -33q-4 -8 -12 -21t-34 -46.5t-55 -59t-74.5 -46.5t-92.5 -21q-40 0 -78 20 t-57.5 39t-45.5 49q-2 2 -16.5 19t-19.5 22t-19.5 18t-24.5 18t-25 10t-30 5q-38 0 -75 -20.5t-63 -50.5t-40.5 -50.5t-22.5 -35.5q-6 -10 -17.5 -12.5t-20.5 5.5z" />
<glyph unicode="&#xa1;" horiz-adv-x="460" d="M20 -588l138 832q3 9 11 16.5t17 7.5h17q10 0 17 -7.5t5 -16.5l-96 -832q-2 -26 -33 -26h-53q-11 0 -17.5 8t-5.5 18zM184 748q0 38 26.5 65t63.5 27q30 0 50 -21t20 -51q0 -39 -28 -65.5t-64 -26.5q-30 0 -49 20.5t-19 51.5z" />
<glyph unicode="&#xa2;" horiz-adv-x="835" d="M98 348q0 103 36 195t97 157t144 102.5t174 37.5q31 0 55 -6l31 81q9 22 29 19l14 -4q24 -7 14 -33l-30 -78q90 -32 141 -108q11 -16 -10 -37l-23 -21q-9 -8 -17 -8.5t-11.5 3t-10.5 11.5q-1 1 -7 7.5t-11.5 12t-15.5 14.5t-20 16t-23 14t-27 12l-248 -663q27 -6 59 -6 q38 0 72.5 9.5t62 26t46 30.5t37.5 31.5t22 20.5q20 20 39 4l18 -16q20 -16 4 -35q-42 -53 -127 -105t-184 -52q-44 0 -84 12l-70 -187q-8 -19 -30 -16l-15 2q-9 2 -12.5 11t0.5 20l70 188q-85 40 -137 131.5t-52 206.5zM190 360q0 -89 36 -161.5t96 -104.5l245 656 q-16 4 -30 4q-137 0 -242 -115t-105 -279z" />
<glyph unicode="&#xa3;" horiz-adv-x="987" d="M201 21v8.5t1 9.5t1 8q57 108 97 221.5t48 184.5q8 70 8 165h-80q-24 0 -20 29l2 15q3 20 29 20h63q-1 21 -8.5 112t-7.5 144q0 123 34.5 222t94.5 162.5t140 97.5t173 34q108 0 192 -51t107 -98q11 -25 -12 -45l-19 -19q-8 -9 -20.5 -9t-22.5 13q-5 9 -21.5 26.5 t-46 40.5t-76 39.5t-97.5 16.5q-65 0 -125 -29t-107.5 -81.5t-75.5 -134.5t-28 -181q0 -54 7.5 -147.5t8.5 -112.5h361q13 0 18.5 -8.5t3.5 -20.5l-2 -14q-3 -21 -28 -21h-347q3 -64 -12 -165q-29 -198 -117 -369h535q16 0 20 -7t2 -22l-4 -30q-2 -10 -9 -17.5t-17 -7.5 h-623q-6 0 -10 1.5t-6 5t-3 6t-1 8.5z" />
<glyph unicode="&#xa4;" horiz-adv-x="946" d="M285 372.5q2 10.5 8 16.5l113 109q-38 71 -25 161.5t70 159.5l-82 107q-5 5 -3.5 17t11.5 20l22 22q10 9 20.5 9.5t14.5 -5.5l80 -108q74 55 152.5 54t136.5 -56l112 108q4 5 16 4.5t19 -10.5l15 -18q16 -23 -4 -39l-111 -105q38 -71 26 -160.5t-69 -158.5l78 -105 q12 -19 -8 -39l-25 -22q-21 -18 -33 -2l-80 104q-71 -53 -151.5 -53.5t-136.5 53.5l-105 -104q-8 -8 -20 -8t-19 8l-18 20q-6 10 -4 20.5zM458.5 657.5q-13.5 -82.5 30.5 -139.5q43 -56 111 -56.5t127 56.5t72 139.5t-29 139.5q-43 58 -111 57.5t-127 -57.5 q-60 -57 -73.5 -139.5z" />
<glyph unicode="&#xa5;" horiz-adv-x="1159" d="M343.5 1424.5q6.5 9.5 21.5 9.5h57q18 0 24 -13l318 -633l504 633q10 13 26 13h78q15 0 18.5 -9.5t-6.5 -21.5l-577 -705l-14 -106h270q24 0 20 -27l-2 -14q-3 -23 -28 -23h-269l-26 -180h270q12 0 17.5 -7.5t3.5 -18.5l-2 -13q-2 -11 -9.5 -17.5t-17.5 -6.5h-270 l-37 -258q-1 -10 -10.5 -18.5t-18.5 -8.5h-47q-10 0 -16.5 8t-4.5 19l37 258h-270q-11 0 -16.5 7t-4.5 17l3 17q3 22 26 22h271l26 180h-270q-10 0 -16.5 7t-4.5 18l2 16q3 23 27 23h270l15 104l-367 707q-7 12 -0.5 21.5z" />
<glyph unicode="&#xa6;" horiz-adv-x="745" d="M369 -590l100 709q2 11 10.5 18.5t18.5 7.5h12q10 0 16 -7.5t4 -18.5l-100 -709q-1 -10 -9.5 -17t-19.5 -7h-10q-11 0 -17 7t-5 17zM567 821l99 707q6 26 30 26h13q10 0 15.5 -7.5t2.5 -18.5l-98 -707q-1 -10 -10.5 -18t-20.5 -8h-8q-11 0 -17.5 8t-5.5 18z" />
<glyph unicode="&#xa7;" horiz-adv-x="1013" d="M-10 -292q-2 6 0.5 12.5t9.5 13.5l31 33q22 22 39 2q8 -12 29 -32.5t59.5 -50.5t96 -50.5t118.5 -20.5q79 0 153 33.5t124 100.5t50 151q0 102 -74.5 171.5t-224.5 129.5q-144 57 -221.5 138.5t-77.5 205.5q0 39 10.5 76.5t24 64t35 54.5t36 42.5t35 33.5t23.5 22 q-1 1 -20 29t-32 50.5t-25.5 64.5t-12.5 85q0 51 15.5 102.5t50.5 103.5t85.5 91.5t127.5 64.5t170 25q49 0 98.5 -10.5t84 -26t62.5 -31t42 -26.5l14 -10q8 -4 10.5 -14.5t-8.5 -26.5l-25 -31q-19 -23 -41 -8l-12 9q-13 9 -27.5 19t-39 23t-49.5 23t-58 17t-64 7 q-87 0 -155.5 -28t-107.5 -73t-59 -95.5t-20 -102.5q0 -179 252 -274q86 -33 146.5 -65t111 -74t75 -95t24.5 -119q0 -45 -14.5 -88t-39.5 -77.5t-46 -58t-47.5 -46.5t-29.5 -27q0 -1 13.5 -18t21.5 -28t21.5 -35t21.5 -45.5t14.5 -51.5t6.5 -61q0 -106 -62 -193.5 t-163.5 -135.5t-217.5 -48q-71 0 -138 21t-112.5 51.5t-70.5 52.5t-37 37q-5 6 -6.5 8.5t-3.5 8.5zM199 559q0 -96 61 -155.5t184 -110.5q110 -44 191 -100q1 1 31 28.5t49.5 49.5t39 65t19.5 88q0 98 -72.5 160t-228.5 125q-112 47 -151 77q-2 -2 -16 -14.5t-22 -20.5 t-23 -24t-24 -32.5t-18.5 -37t-14.5 -46t-5 -52.5z" />
<glyph unicode="&#xa8;" horiz-adv-x="763" d="M451 1280q0 33 23 56.5t54 23.5q27 0 42.5 -17.5t15.5 -44.5q0 -32 -22 -54.5t-54 -22.5q-26 0 -42.5 17t-16.5 42zM805 1280q0 33 22.5 56.5t53.5 23.5q27 0 44 -17.5t17 -44.5q0 -32 -23.5 -54.5t-56.5 -22.5q-26 0 -41.5 17t-15.5 42z" />
<glyph unicode="&#xa9;" horiz-adv-x="1566" d="M262 618q0 168 63.5 323t169.5 267t248.5 179t294.5 67q156 0 287.5 -87t207 -234t75.5 -320q0 -168 -64 -323t-170 -266t-249 -177.5t-294 -66.5q-158 0 -289 85.5t-205.5 232t-74.5 320.5zM342 629q0 -155 63.5 -285.5t179 -207.5t257.5 -77q175 0 332.5 100t254.5 273 t97 373q0 154 -63.5 284t-179 206.5t-257.5 76.5q-130 0 -255 -59t-219.5 -158t-152 -237.5t-57.5 -288.5zM596 662q0 182 121 311t289 129q127 0 202 -78q18 -18 -2 -39l-22 -22q-15 -18 -35 -2q-56 59 -154 59q-124 0 -215.5 -103t-91.5 -245q0 -110 62 -185t161 -75 q87 0 168 63q27 17 37 -4l17 -25q9 -19 -9 -34q-98 -88 -229 -88q-123 0 -211 99.5t-88 238.5z" />
<glyph unicode="&#xaa;" horiz-adv-x="618" d="M287 993q0 103 69 167.5t185 64.5q36 0 73.5 -8.5t47.5 -14.5q17 97 2 142t-82 45q-24 0 -48 -3.5t-43 -9.5t-32.5 -11t-26 -10.5t-14.5 -6.5q-16 -5 -22.5 6.5t-6.5 27.5q0 18 19 27q75 45 188 45q76 0 109.5 -37t32 -98.5t-10.5 -142.5l-45 -316q-1 -9 -8 -14.5 t-15 -5.5h-22q-16 0 -16 16v47q-92 -78 -187 -78q-66 0 -106.5 46t-40.5 122zM352 1006q0 -53 26.5 -85t70.5 -32q52 0 102.5 27.5t77.5 60.5l22 170q-50 22 -123 22q-75 0 -125.5 -46.5t-50.5 -116.5z" />
<glyph unicode="&#xab;" horiz-adv-x="772" d="M137 408q-7 18 6 34l238 316q13 18 35 18h33q8 0 12 -5t2.5 -13.5t-8.5 -18.5l-211 -313l121 -322q6 -15 1 -25.5t-16 -10.5h-35q-19 0 -28 18zM432 408q-7 18 6 34l238 316q14 18 35 18h32q12 0 14.5 -11t-7.5 -26l-211 -313l120 -322q6 -15 1.5 -25.5t-15.5 -10.5h-35 q-19 0 -28 18z" />
<glyph unicode="&#xac;" horiz-adv-x="993" d="M209 696l4 33q2 11 10.5 19t18.5 8h708q9 0 15 -8t4 -19l-58 -412q-1 -10 -9 -17t-19 -7h-29q-9 0 -15 7t-5 17l49 353h-654q-10 0 -16 7.5t-4 18.5z" />
<glyph unicode="&#xad;" horiz-adv-x="643" d="M319 500l3 22q1 12 9 19.5t19 7.5h410q11 0 17 -7.5t5 -19.5l-2 -22q-4 -27 -30 -27h-410q-10 0 -16.5 8t-4.5 19z" />
<glyph unicode="&#xae;" horiz-adv-x="1566" d="M262 618q0 168 63.5 323t169.5 267t248.5 179t294.5 67q156 0 287.5 -87t207 -234t75.5 -320q0 -168 -64 -323t-170 -266t-249 -177.5t-294 -66.5q-158 0 -289 85.5t-205.5 232t-74.5 320.5zM342 629q0 -155 63.5 -285.5t179 -207.5t257.5 -77q175 0 332.5 100t254.5 273 t97 373q0 154 -63.5 284t-179 206.5t-257.5 76.5q-130 0 -255 -59t-219.5 -158t-152 -237.5t-57.5 -288.5zM649 369l99 702q2 11 10 19t18 8h268q81 0 142 -51.5t61 -145.5q0 -61 -19 -110.5t-51 -80t-65.5 -48.5t-69.5 -25l88 -262q5 -11 -1 -21t-19 -10h-43q-18 0 -25 21 l-81 266h-193l-37 -262q-3 -27 -29 -27h-32q-10 0 -16.5 8t-4.5 19zM778 707h211q70 0 122 50.5t52 135.5q0 68 -42 99.5t-113 31.5h-185z" />
<glyph unicode="&#xaf;" horiz-adv-x="763" d="M160 1243l4 27q4 26 29 26h495q11 0 17.5 -8t5.5 -18l-4 -27q-1 -10 -9.5 -17t-19.5 -7h-496q-25 0 -22 24z" />
<glyph unicode="&#xb0;" horiz-adv-x="665" d="M319 1135q0 132 88.5 226.5t206.5 94.5q93 0 155 -71t62 -175q0 -130 -89.5 -224.5t-204.5 -94.5q-95 0 -156.5 70.5t-61.5 173.5zM389 1147q0 -76 45.5 -130t112.5 -54q79 0 145 71.5t66 165.5q0 74 -45 128t-109 54q-81 0 -148 -71t-67 -164z" />
<glyph unicode="&#xb1;" horiz-adv-x="1169" d="M319 178l5 31q1 10 10 18.5t18 8.5h711q9 0 13.5 -8t2.5 -19l-4 -31q-2 -11 -8.5 -18.5t-15.5 -7.5h-711q-9 0 -15.5 8t-5.5 18zM408 809l6 31q2 10 9.5 18t16.5 8h312l49 344q2 11 10 18t18 7h39q9 0 15.5 -7.5t5.5 -17.5l-49 -344h311q9 0 14.5 -7.5t3.5 -18.5l-6 -31 q-4 -27 -22 -27h-312l-36 -258q-1 -10 -10.5 -18t-18.5 -8h-39q-10 0 -16 7.5t-4 18.5l36 258h-311q-9 0 -16 8.5t-6 18.5z" />
<glyph unicode="&#xb2;" horiz-adv-x="604" d="M365 1049l2 18l288 266q73 70 84 135q7 49 -20.5 86t-89.5 37q-12 0 -24.5 -2.5t-22 -6t-20 -9.5t-17 -10.5t-15.5 -12t-12.5 -11l-10.5 -10.5l-7 -7q-12 -12 -21 0l-24 24q-8 8 2 21q3 4 8.5 10t24.5 22t39 28t51 22t63 10q87 0 133 -54t35 -130q-12 -96 -106 -181 l-220 -198h256q16 0 13 -17l-4 -30q0 -6 -5 -11.5t-12 -5.5h-354q-14 0 -14 17z" />
<glyph unicode="&#xb3;" horiz-adv-x="598" d="M365 1096q-10 10 4 22l22 23q6 6 13 6t10 -6q1 -1 8.5 -9.5t13 -14t18 -14.5t25 -14.5t32.5 -9.5t42 -4q62 0 104 32.5t50 84.5q7 50 -24.5 83.5t-102.5 33.5h-84q-7 0 -11 6t-2 14l4 25q0 7 5.5 11.5t11.5 4.5h84q59 0 96.5 28.5t46.5 84.5q6 51 -22 80.5t-82 29.5 q-16 0 -32 -2.5t-29 -8t-23.5 -10.5t-20.5 -12t-15.5 -11.5t-12.5 -10.5l-7 -6q-3 -5 -9 -5.5t-9 3.5l-20 22q-9 12 2 23q3 3 8.5 9t24.5 20.5t39.5 25.5t52.5 20t65 9q75 0 125.5 -46.5t40.5 -121.5q-6 -47 -41 -88t-76 -60q4 -2 11 -5t24.5 -16t30 -29t20.5 -44t4 -61 q-11 -78 -73 -127t-162 -49q-113 0 -180 84z" />
<glyph unicode="&#xb4;" horiz-adv-x="557" d="M354 1174q-6 16 17 28l321 184q5 4 17 3.5t16 -9.5l18 -43q7 -21 -12 -30l-338 -162q-25 -11 -31 6z" />
<glyph unicode="&#xb5;" horiz-adv-x="956" d="M-16 -588l194 1381q1 10 10.5 18t18.5 8h39q10 0 17 -7.5t5 -18.5l-63 -441q-20 -141 24.5 -213.5t145.5 -72.5q43 0 85 14t71 33t53.5 41.5t36 35.5t14.5 19l82 584q3 26 28 26h39q9 0 15.5 -8t5.5 -18l-107 -766q-2 -11 -11 -19t-19 -8h-25q-20 0 -20 25l4 73 q-24 -35 -99.5 -76.5t-171.5 -41.5q-130 0 -194 79l-92 -647q-1 -11 -11.5 -18.5t-21.5 -7.5h-31q-10 0 -17 7.5t-5 18.5z" />
<glyph unicode="&#xb6;" horiz-adv-x="1271" d="M223 1004q25 178 148 304t276 126h789q10 0 16 -8t4 -19l-4 -25q-1 -12 -9.5 -19t-19.5 -7h-186l-272 -1944q-2 -11 -10.5 -18.5t-18.5 -7.5h-31q-8 0 -13.5 6.5t-4.5 19.5l272 1944h-313l-273 -1944q-1 -10 -9 -18t-17 -8h-31q-23 0 -20 26l163 1168h-133 q-106 0 -181.5 60.5t-106.5 157t-15 206.5z" />
<glyph unicode="&#xb7;" horiz-adv-x="473" d="M324 524q0 39 28.5 65.5t65.5 26.5q30 0 48.5 -20t18.5 -51q0 -38 -26.5 -65t-63.5 -27q-30 0 -50.5 20.5t-20.5 50.5z" />
<glyph unicode="&#xb8;" horiz-adv-x="456" d="M135 -438q-10 26 6 37l21 16q6 4 10 5.5t8.5 -2.5t5.5 -5t7 -10q28 -37 88 -37q55 0 88.5 40.5t33.5 98.5q0 102 -149 123q-25 5 -21 27l21 145h37h37l-17 -111q69 -8 120.5 -54t51.5 -118q0 -95 -59 -160t-154 -65q-51 0 -88 22t-47 48z" />
<glyph unicode="&#xb9;" horiz-adv-x="372" d="M399 1516q-3 12 9 22l155 100h23q19 0 16 -16l-80 -573q-1 -7 -6 -12t-10 -5h-43q-15 0 -12 17l69 489l-96 -53q-13 -6 -16 4z" />
<glyph unicode="&#xba;" horiz-adv-x="632" d="M326 1128q22 152 94 239t178 87q107 0 154.5 -86.5t25.5 -239.5q-20 -150 -92.5 -235.5t-179.5 -85.5q-105 0 -152.5 85.5t-27.5 235.5zM399 1128q-17 -121 13 -187.5t104 -66.5q75 0 123 66t66 188q18 124 -12 192.5t-105 68.5q-74 0 -122.5 -69t-66.5 -192z" />
<glyph unicode="&#xbb;" horiz-adv-x="770" d="M80 104l211 322l-123 313q-6 15 -1 26t17 11h33q20 0 29 -18l149 -316q9 -15 -4 -34l-239 -322q-14 -18 -35 -18h-33q-26 0 -4 36zM375 104l211 322l-123 313q-6 15 -1 26t17 11h33q20 0 29 -18l149 -316q9 -15 -4 -34l-240 -322q-14 -18 -34 -18h-33q-26 0 -4 36z" />
<glyph unicode="&#xbc;" horiz-adv-x="1261" d="M150.5 8.5q-3.5 8.5 3.5 20.5l890 1390q9 15 29 15h37q12 0 15.5 -8.5t-3.5 -20.5l-886 -1385q-14 -20 -35 -20h-35q-12 0 -15.5 8.5zM279 1311q-3 13 8 22l155 101h23q7 0 12 -4.5t4 -12.5l-80 -573q-1 -7 -6 -12t-10 -5h-43q-15 0 -12 17l69 489l-96 -53q-13 -6 -16 4z M676 160l2 18l407 428h27q6 0 11.5 -5.5t4.5 -12.5l-53 -379h72q7 0 11 -4.5t3 -11.5l-4 -33q-3 -17 -18 -17h-72l-18 -125q-1 -7 -8 -12.5t-13 -5.5h-39q-7 0 -12 5.5t-4 12.5l16 123h-301q-6 0 -9.5 6t-2.5 13zM797 211h202l37 258z" />
<glyph unicode="&#xbd;" horiz-adv-x="1275" d="M150.5 8.5q-3.5 8.5 3.5 20.5l890 1390q9 15 29 15h37q12 0 15.5 -8.5t-3.5 -20.5l-886 -1385q-14 -20 -35 -20h-35q-12 0 -15.5 8.5zM279 1311q-3 13 8 22l155 101h23q7 0 12 -4.5t4 -12.5l-80 -573q-1 -7 -6 -12t-10 -5h-43q-15 0 -12 17l69 489l-96 -53q-13 -6 -16 4z M741 16l2 19l289 266q73 70 84 135q7 49 -20.5 86t-89.5 37q-12 0 -24.5 -2.5t-22 -6t-20 -9.5t-17.5 -11t-15.5 -12t-12 -11t-10 -10.5l-7.5 -7.5q-12 -12 -21 0l-25 25q-7 7 3 21q3 4 8.5 10t24.5 22t39 28t51 22t63 10q87 0 133 -54.5t35 -130.5q-11 -94 -107 -180 l-219 -199h256q15 0 12 -16l-4 -31q0 -16 -16 -16h-354q-15 0 -15 16z" />
<glyph unicode="&#xbe;" horiz-adv-x="1404" d="M283 891q-10 10 4 22l22 23q6 6 13 6t10 -6q1 -1 8.5 -9.5t13 -14t18 -14.5t25 -14.5t32.5 -9.5t42 -4q62 0 104 32.5t50 84.5q7 50 -24.5 83.5t-102.5 33.5h-84q-7 0 -11 6t-2 14l5 25q0 16 16 16h84q59 0 96.5 28.5t46.5 84.5q6 51 -22 81t-82 30q-19 0 -37.5 -4 t-31.5 -9.5t-26.5 -14t-20 -13.5t-15.5 -13l-8 -8q-3 -5 -9.5 -5.5t-9.5 3.5l-20 23q-9 11 2 22q3 3 8.5 9t24.5 20.5t39.5 25.5t52.5 20t65 9q75 0 125.5 -46.5t40.5 -121.5q-6 -47 -41 -87.5t-76 -59.5q4 -2 11 -5t24.5 -16t30 -29.5t20.5 -44.5t4 -61q-11 -78 -73 -127 t-162 -49q-113 0 -180 84zM359 8.5q-4 8.5 3 20.5l891 1390q9 15 29 15h37q12 0 15.5 -8.5t-3.5 -20.5l-887 -1385q-14 -20 -34 -20h-35q-12 0 -16 8.5zM885 160l2 18l407 428h27q7 0 12 -5.5t4 -12.5l-53 -379h72q6 0 10.5 -4.5t3.5 -11.5l-4 -33q-3 -17 -18 -17h-72 l-19 -125q-4 -18 -20 -18h-39q-6 0 -11.5 5.5t-4.5 12.5l16 123h-301q-6 0 -9.5 6t-2.5 13zM1006 211h202l37 258z" />
<glyph unicode="&#xbf;" horiz-adv-x="485" d="M-455 -389q0 48 15.5 93.5t34.5 76.5t55 67t58 53.5t64.5 48.5t53.5 40q84 66 92 125l16 116q3 29 29 29h35q28 0 25 -29l-17 -118q-13 -103 -131 -189q-7 -5 -46 -34t-49.5 -38t-41 -35t-41.5 -42t-28 -42t-23 -52.5t-6 -55.5q0 -69 47 -122.5t131 -53.5q56 0 106 17 t83 43t51.5 45.5t29.5 35.5q12 20 35 4l29 -20q9 -6 10.5 -14t-0.5 -12t-8 -13q-4 -7 -12.5 -18.5t-40 -40.5t-68 -51.5t-97.5 -41t-129 -18.5q-120 0 -191 71.5t-71 174.5zM-39 748q0 38 28.5 65t65.5 27q29 0 48.5 -21t19.5 -51q0 -39 -27 -65.5t-63 -26.5 q-31 0 -51.5 20.5t-20.5 51.5z" />
<glyph unicode="&#xc0;" horiz-adv-x="1230" d="M-109 8.5q-3 8.5 3 20.5l768 1421q7 14 26 14h6q21 0 25 -14l362 -1425q8 -25 -22 -25h-53q-22 0 -27 18l-94 377h-692l-197 -377q-9 -18 -33 -18h-59q-10 0 -13 8.5zM240 475h622l-190 825h-6zM563 1796l25 39q12 21 35 6l270 -184q15 -10 8 -29l-12 -18q-12 -15 -33 -6 l-291 161q-16 10 -2 31z" />
<glyph unicode="&#xc1;" horiz-adv-x="1230" d="M-109 8.5q-3 8.5 3 20.5l768 1421q7 14 26 14h6q21 0 25 -14l362 -1425q8 -25 -22 -25h-53q-22 0 -27 18l-94 377h-692l-197 -377q-9 -18 -33 -18h-59q-10 0 -13 8.5zM240 475h622l-190 825h-6zM539 1628q-7 18 16 29l322 184q24 12 32 -6l19 -43q7 -21 -13 -31 l-337 -162q-25 -11 -31 7z" />
<glyph unicode="&#xc2;" horiz-adv-x="1230" d="M-109 8.5q-3 8.5 3 20.5l768 1421q7 14 26 14h6q21 0 25 -14l362 -1425q8 -25 -22 -25h-53q-22 0 -27 18l-94 377h-692l-197 -377q-9 -18 -33 -18h-59q-10 0 -13 8.5zM240 475h622l-190 825h-6zM457 1599q-9 15 8 29l252 201q12 10 24 10q9 0 19 -10l196 -201 q17 -17 5 -29l-15 -16q-16 -16 -31 -4l-182 166l-231 -172q-19 -12 -31 4z" />
<glyph unicode="&#xc3;" horiz-adv-x="1230" d="M-109 8.5q-3 8.5 3 20.5l768 1421q7 14 26 14h6q21 0 25 -14l362 -1425q8 -25 -22 -25h-53q-22 0 -27 18l-94 377h-692l-197 -377q-9 -18 -33 -18h-59q-10 0 -13 8.5zM240 475h622l-190 825h-6zM449 1675q1 2 8.5 18t12 25.5t15.5 28t20.5 31t25 27.5t31 24t36.5 15.5 t43 6.5q35 0 59.5 -19t37.5 -46.5t24 -55t27 -46.5t38 -19q69 0 115 121q10 24 31 14l24 -8q15 -10 9 -27t-9.5 -26t-22 -41.5t-37.5 -52.5t-52 -38t-70 -18q-34 0 -58.5 19.5t-38.5 47.5t-25.5 55.5t-27 47t-36.5 19.5q-72 0 -121 -129q-3 -9 -11.5 -13t-17.5 0l-22 11 q-19 6 -8 28z" />
<glyph unicode="&#xc4;" horiz-adv-x="1230" d="M-109 8.5q-3 8.5 3 20.5l768 1421q7 14 26 14h6q21 0 25 -14l362 -1425q8 -25 -22 -25h-53q-22 0 -27 18l-94 377h-692l-197 -377q-9 -18 -33 -18h-59q-10 0 -13 8.5zM240 475h622l-190 825h-6zM465 1700q0 33 23.5 56.5t54.5 23.5q26 0 42.5 -17.5t16.5 -44.5 q0 -32 -24 -55t-56 -23q-26 0 -41.5 17.5t-15.5 42.5zM850 1700q0 33 23.5 56.5t54.5 23.5q26 0 42.5 -17.5t16.5 -44.5q0 -32 -24 -55t-56 -23q-24 0 -40.5 17.5t-16.5 42.5z" />
<glyph unicode="&#xc5;" horiz-adv-x="1230" d="M-109 8.5q-3 8.5 3 20.5l768 1421q7 14 26 14h6q21 0 25 -14l362 -1425q8 -25 -22 -25h-53q-22 0 -27 18l-94 377h-692l-197 -377q-9 -18 -33 -18h-59q-10 0 -13 8.5zM240 475h622l-190 825h-6zM537 1731q0 105 66.5 177t164.5 72q73 0 120.5 -54.5t47.5 -133.5 q0 -105 -65.5 -176.5t-163.5 -71.5q-74 0 -122 54t-48 133zM604 1743q0 -55 32 -94t81 -39q63 0 106 51t43 121q0 53 -30.5 92t-75.5 39q-65 0 -110.5 -50t-45.5 -120z" />
<glyph unicode="&#xc6;" horiz-adv-x="1710" d="M-171 10.5q0 10.5 11 24.5l967 1364q10 13 14.5 18t16.5 11t26 6h721q12 0 18.5 -8t4.5 -19l-4 -33q-2 -11 -10.5 -18.5t-20.5 -7.5h-672l-80 -568h578q16 0 25 -8t6 -22l-5 -27q-4 -31 -32 -31h-584l-84 -606h672q12 0 18.5 -9t3.5 -22l-6 -28q-2 -11 -10.5 -19 t-18.5 -8h-735q-10 0 -17 8t-5 19l51 368h-481l-260 -377q-15 -18 -35 -18h-60q-13 0 -13 10.5zM254 475h436l109 782z" />
<glyph unicode="&#xc7;" horiz-adv-x="1353" d="M270 616q0 173 63.5 329t169 267t248 176.5t296.5 65.5q263 0 423 -190q6 -7 5.5 -18.5t-7.5 -18.5l-34 -31q-18 -15 -35 2q-65 78 -159 121t-204 43q-128 0 -249.5 -59.5t-212 -158t-145 -235t-54.5 -282.5q0 -151 60 -275.5t170.5 -198t248.5 -73.5q208 0 399 172 q20 17 33 4l39 -43q6 -6 5 -16.5t-9 -18.5q-216 -198 -475 -198q-4 0 -12.5 1t-12.5 1l-12 -93q69 -8 120.5 -54t51.5 -118q0 -95 -59 -160t-154 -65q-51 0 -88 22t-47 48t6 37l20 16q6 4 10 5.5t8.5 -2.5t5.5 -5t7 -10q28 -37 88 -37q55 0 89 40.5t34 98.5q0 102 -149 123 q-25 5 -21 27l19 133q-212 37 -346 212.5t-134 415.5z" />
<glyph unicode="&#xc8;" horiz-adv-x="1136" d="M274 27l195 1380q1 10 10.5 18.5t18.5 8.5h737q10 0 17 -8t5 -19l-4 -35q-1 -10 -10 -18t-20 -8h-664l-80 -566h574q10 0 17 -7.5t5 -18.5l-4 -35q-1 -10 -10.5 -18.5t-20.5 -8.5h-573l-86 -606h666q10 0 17 -8t5 -19l-6 -32q-2 -11 -10.5 -19t-18.5 -8h-737 q-10 0 -17.5 8t-5.5 19zM727 1796l25 39q12 21 34 6l271 -184q15 -10 8 -29l-12 -18q-12 -15 -33 -6l-291 161q-16 10 -2 31z" />
<glyph unicode="&#xc9;" horiz-adv-x="1136" d="M274 27l195 1380q1 10 10.5 18.5t18.5 8.5h737q10 0 17 -8t5 -19l-4 -35q-1 -10 -10 -18t-20 -8h-664l-80 -566h574q10 0 17 -7.5t5 -18.5l-4 -35q-1 -10 -10.5 -18.5t-20.5 -8.5h-573l-86 -606h666q10 0 17 -8t5 -19l-6 -32q-2 -11 -10.5 -19t-18.5 -8h-737 q-10 0 -17.5 8t-5.5 19zM702 1628q-7 17 17 29l321 184q5 4 17 3.5t16 -9.5l19 -43q7 -21 -13 -31l-338 -162q-24 -11 -30 7z" />
<glyph unicode="&#xca;" horiz-adv-x="1136" d="M274 27l195 1380q1 10 10.5 18.5t18.5 8.5h737q10 0 17 -8t5 -19l-4 -35q-1 -10 -10 -18t-20 -8h-664l-80 -566h574q10 0 17 -7.5t5 -18.5l-4 -35q-1 -10 -10.5 -18.5t-20.5 -8.5h-573l-86 -606h666q10 0 17 -8t5 -19l-6 -32q-2 -11 -10.5 -19t-18.5 -8h-737 q-10 0 -17.5 8t-5.5 19zM612 1599q-9 15 9 29l251 201q12 10 25 10q8 0 18 -10l197 -201q16 -16 4 -29l-14 -16q-16 -16 -31 -4l-182 166l-232 -172q-18 -12 -30 4z" />
<glyph unicode="&#xcb;" horiz-adv-x="1136" d="M274 27l195 1380q1 10 10.5 18.5t18.5 8.5h737q10 0 17 -8t5 -19l-4 -35q-1 -10 -10 -18t-20 -8h-664l-80 -566h574q10 0 17 -7.5t5 -18.5l-4 -35q-1 -10 -10.5 -18.5t-20.5 -8.5h-573l-86 -606h666q10 0 17 -8t5 -19l-6 -32q-2 -11 -10.5 -19t-18.5 -8h-737 q-10 0 -17.5 8t-5.5 19zM629 1700q0 33 23.5 56.5t54.5 23.5q26 0 42.5 -17.5t16.5 -44.5q0 -32 -24 -55t-56 -23q-26 0 -41.5 17.5t-15.5 42.5zM1014 1700q0 33 23.5 56.5t54.5 23.5q26 0 42.5 -17.5t16.5 -44.5q0 -32 -24 -55t-56 -23q-24 0 -40.5 17.5t-16.5 42.5z" />
<glyph unicode="&#xcc;" horiz-adv-x="524" d="M274 27l193 1380q4 27 31 27h45q10 0 17 -8t5 -19l-192 -1380q-3 -12 -12.5 -19.5t-20.5 -7.5h-43q-10 0 -17.5 8t-5.5 19zM391 1796l25 39q12 21 35 6l270 -184q15 -10 8 -29l-12 -18q-12 -15 -33 -6l-291 161q-16 10 -2 31z" />
<glyph unicode="&#xcd;" horiz-adv-x="524" d="M274 27l193 1380q4 27 31 27h45q10 0 17 -8t5 -19l-192 -1380q-3 -12 -12.5 -19.5t-20.5 -7.5h-43q-10 0 -17.5 8t-5.5 19zM362 1628q-7 17 17 29l321 184q5 4 17 3.5t16 -9.5l19 -43q7 -21 -13 -31l-338 -162q-24 -11 -30 7z" />
<glyph unicode="&#xce;" horiz-adv-x="524" d="M274 27l193 1380q4 27 31 27h45q10 0 17 -8t5 -19l-192 -1380q-3 -12 -12.5 -19.5t-20.5 -7.5h-43q-10 0 -17.5 8t-5.5 19zM283 1599q-9 15 8 29l252 201q13 10 24 10q9 0 19 -10l196 -201q16 -16 4 -29l-14 -16q-16 -16 -31 -4l-182 166l-231 -172q-19 -12 -31 4z" />
<glyph unicode="&#xcf;" horiz-adv-x="524" d="M274 27l193 1380q4 27 31 27h45q10 0 17 -8t5 -19l-192 -1380q-3 -12 -12.5 -19.5t-20.5 -7.5h-43q-10 0 -17.5 8t-5.5 19zM295 1700q0 33 23.5 56.5t54.5 23.5q26 0 42.5 -17.5t16.5 -44.5q0 -32 -24 -55t-56 -23q-26 0 -41.5 17.5t-15.5 42.5zM680 1700q0 33 23.5 56.5 t54.5 23.5q26 0 42.5 -17.5t16.5 -44.5q0 -32 -24 -55t-56 -23q-24 0 -40.5 17.5t-16.5 42.5z" />
<glyph unicode="&#xd0;" horiz-adv-x="1421" d="M283 27l92 653h-64q-10 0 -16 8t-4 19l2 14q3 22 29 22h61l94 664q2 11 9.5 19t17.5 8h409q158 0 286.5 -84t199.5 -226.5t71 -312.5q0 -163 -63.5 -314t-168 -259.5t-243 -173t-282.5 -64.5h-410q-10 0 -16 8t-4 19zM387 88h322q130 0 250 56t209 151t142.5 229 t53.5 283q0 230 -134 384.5t-345 154.5h-322l-84 -603h449q25 0 22 -22l-2 -16q-1 -10 -10 -17.5t-18 -7.5h-449z" />
<glyph unicode="&#xd1;" horiz-adv-x="1460" d="M274 27l197 1400q7 27 33 27h31l702 -1272h4l168 1225q1 10 10.5 18.5t20.5 8.5h41q10 0 17 -8t5 -19l-196 -1401q-3 -26 -35 -26h-33l-698 1275h-2l-172 -1228q-4 -27 -52 -27h-18q-10 0 -17.5 8t-5.5 19zM756 1675q1 2 8.5 18t12 25.5t15.5 28t20.5 31t25 27.5t31 24 t36.5 15.5t43 6.5q43 0 71 -29t39.5 -64t30.5 -64t46 -29q68 0 114 121q10 24 31 14l25 -8q15 -10 8 -27q-6 -17 -9.5 -26t-22 -41.5t-37.5 -52.5t-52 -38t-70 -18q-34 0 -58.5 19.5t-38.5 47.5t-25.5 55.5t-27 47t-36.5 19.5q-72 0 -121 -129q-3 -9 -11.5 -13t-17.5 0 l-22 11q-19 6 -8 28z" />
<glyph unicode="&#xd2;" horiz-adv-x="1570" d="M266 614q0 170 62 326t166.5 268.5t248 179t299.5 66.5q119 0 225.5 -50.5t181.5 -137t119 -204.5t44 -249q0 -170 -62 -325t-166.5 -266t-248 -176.5t-299.5 -65.5q-159 0 -290 84.5t-205.5 230t-74.5 319.5zM360 627q0 -153 61.5 -280t174 -202t252.5 -75 q129 0 251.5 58t214.5 155.5t148 234t56 283.5q0 154 -61.5 282.5t-174 204.5t-252.5 76q-129 0 -252 -58.5t-214.5 -157t-147.5 -235.5t-56 -286zM934 1796l24 39q12 21 35 6l271 -184q15 -10 8 -29l-12 -18q-12 -15 -33 -6l-291 161q-16 10 -2 31z" />
<glyph unicode="&#xd3;" horiz-adv-x="1570" d="M266 614q0 170 62 326t166.5 268.5t248 179t299.5 66.5q119 0 225.5 -50.5t181.5 -137t119 -204.5t44 -249q0 -170 -62 -325t-166.5 -266t-248 -176.5t-299.5 -65.5q-159 0 -290 84.5t-205.5 230t-74.5 319.5zM360 627q0 -153 61.5 -280t174 -202t252.5 -75 q129 0 251.5 58t214.5 155.5t148 234t56 283.5q0 154 -61.5 282.5t-174 204.5t-252.5 76q-129 0 -252 -58.5t-214.5 -157t-147.5 -235.5t-56 -286zM905 1628q-7 17 17 29l321 184q5 4 17 3.5t16 -9.5l18 -43q7 -21 -12 -31l-338 -162q-25 -11 -31 7z" />
<glyph unicode="&#xd4;" horiz-adv-x="1570" d="M266 614q0 170 62 326t166.5 268.5t248 179t299.5 66.5q119 0 225.5 -50.5t181.5 -137t119 -204.5t44 -249q0 -170 -62 -325t-166.5 -266t-248 -176.5t-299.5 -65.5q-159 0 -290 84.5t-205.5 230t-74.5 319.5zM360 627q0 -153 61.5 -280t174 -202t252.5 -75 q129 0 251.5 58t214.5 155.5t148 234t56 283.5q0 154 -61.5 282.5t-174 204.5t-252.5 76q-129 0 -252 -58.5t-214.5 -157t-147.5 -235.5t-56 -286zM825 1599q-9 15 9 29l251 201q13 10 25 10q8 0 18 -10l197 -201q17 -16 4 -29l-14 -16q-16 -16 -31 -4l-182 166l-232 -172 q-18 -12 -30 4z" />
<glyph unicode="&#xd5;" horiz-adv-x="1570" d="M266 614q0 170 62 326t166.5 268.5t248 179t299.5 66.5q119 0 225.5 -50.5t181.5 -137t119 -204.5t44 -249q0 -170 -62 -325t-166.5 -266t-248 -176.5t-299.5 -65.5q-159 0 -290 84.5t-205.5 230t-74.5 319.5zM360 627q0 -153 61.5 -280t174 -202t252.5 -75 q129 0 251.5 58t214.5 155.5t148 234t56 283.5q0 154 -61.5 282.5t-174 204.5t-252.5 76q-129 0 -252 -58.5t-214.5 -157t-147.5 -235.5t-56 -286zM819 1675q1 1 8.5 17.5t12 26t16 28t21 30.5t25 27.5t31 24.5t36.5 15.5t43 6.5q35 0 59.5 -19t37.5 -46.5t24 -55t27 -46.5 t38 -19q69 0 115 121q10 24 30 14l25 -8q14 -10 8 -27q-66 -176 -190 -176q-34 0 -59 19.5t-38.5 47.5t-25.5 55.5t-27.5 47t-36.5 19.5q-71 0 -120 -129q-3 -9 -11.5 -13t-17.5 0l-23 11q-19 6 -8 28z" />
<glyph unicode="&#xd6;" horiz-adv-x="1570" d="M266 614q0 170 62 326t166.5 268.5t248 179t299.5 66.5q119 0 225.5 -50.5t181.5 -137t119 -204.5t44 -249q0 -170 -62 -325t-166.5 -266t-248 -176.5t-299.5 -65.5q-159 0 -290 84.5t-205.5 230t-74.5 319.5zM360 627q0 -153 61.5 -280t174 -202t252.5 -75 q129 0 251.5 58t214.5 155.5t148 234t56 283.5q0 154 -61.5 282.5t-174 204.5t-252.5 76q-129 0 -252 -58.5t-214.5 -157t-147.5 -235.5t-56 -286zM836 1700q0 33 23 56.5t54 23.5q26 0 43 -18t17 -44q0 -32 -24 -55t-56 -23q-26 0 -41.5 17.5t-15.5 42.5zM1221 1700 q0 33 23 56.5t54 23.5q26 0 43 -18t17 -44q0 -32 -24 -55t-56 -23q-24 0 -40.5 17.5t-16.5 42.5z" />
<glyph unicode="&#xd7;" horiz-adv-x="942" d="M325 446.5q2 10.5 11 18.5l256 250l-182 246q-6 7 -4.5 19.5t8.5 18.5l22 19q8 8 19.5 8t17.5 -8l184 -246l256 252q8 7 18.5 6.5t18.5 -8.5l25 -27q6 -6 4.5 -18t-8.5 -19l-258 -251l184 -246q6 -8 4 -19.5t-10 -17.5l-25 -18q-21 -17 -32 -3l-187 248l-258 -250 q-7 -6 -17 -6t-16 6l-26 27q-7 8 -5 18.5z" />
<glyph unicode="&#xd8;" horiz-adv-x="1568" d="M195 57q-13 20 4 37l133 127q-50 75 -77.5 180.5t-27.5 212.5q0 170 64.5 326t170.5 268t248.5 179t293.5 67q129 0 238 -53t185 -148l140 131q8 8 18.5 8.5t16.5 -8.5l6 -8q6 -7 4.5 -18.5t-10.5 -18.5l-138 -131q51 -77 80 -184.5t29 -212.5q0 -169 -65 -324 t-171.5 -265.5t-249 -176t-292.5 -65.5q-131 0 -241 51t-185 145l-136 -127q-6 -7 -16 -7t-16 7zM317 625q0 -92 23.5 -182.5t65.5 -155.5l950 903q-67 83 -161.5 128.5t-205.5 45.5q-129 0 -251.5 -58.5t-215 -157t-149 -236.5t-56.5 -287zM442 242q65 -83 159.5 -127.5 t207.5 -44.5q129 0 252 58t216 155.5t149.5 234.5t56.5 285q0 91 -24.5 183.5t-67.5 158.5z" />
<glyph unicode="&#xd9;" horiz-adv-x="1363" d="M377 522l125 885q1 10 10 18.5t18 8.5h45q10 0 17.5 -8t5.5 -19l-123 -875q-30 -202 57 -330t265 -128t301 127t151 329l125 877q3 27 31 27h43q9 0 15 -8.5t5 -18.5l-122 -885q-34 -239 -188 -390.5t-376 -151.5q-210 0 -323.5 153t-81.5 389zM850 1796l24 39 q12 21 35 6l271 -184q15 -10 8 -29l-12 -18q-12 -15 -33 -6l-291 161q-16 10 -2 31z" />
<glyph unicode="&#xda;" horiz-adv-x="1363" d="M377 522l125 885q1 10 10 18.5t18 8.5h45q10 0 17.5 -8t5.5 -19l-123 -875q-30 -202 57 -330t265 -128t301 127t151 329l125 877q3 27 31 27h43q9 0 15 -8.5t5 -18.5l-122 -885q-34 -239 -188 -390.5t-376 -151.5q-210 0 -323.5 153t-81.5 389zM821 1628q-7 17 17 29 l321 184q5 4 17 3.5t16 -9.5l18 -43q7 -21 -12 -31l-338 -162q-25 -11 -31 7z" />
<glyph unicode="&#xdb;" horiz-adv-x="1363" d="M377 522l125 885q1 10 10 18.5t18 8.5h45q10 0 17.5 -8t5.5 -19l-123 -875q-30 -202 57 -330t265 -128t301 127t151 329l125 877q3 27 31 27h43q9 0 15 -8.5t5 -18.5l-122 -885q-34 -239 -188 -390.5t-376 -151.5q-210 0 -323.5 153t-81.5 389zM743 1599q-9 15 9 29 l252 201q12 10 24 10q9 0 19 -10l196 -201q17 -16 4 -29l-14 -16q-16 -16 -31 -4l-182 166l-232 -172q-18 -12 -30 4z" />
<glyph unicode="&#xdc;" horiz-adv-x="1363" d="M377 522l125 885q1 10 10 18.5t18 8.5h45q10 0 17.5 -8t5.5 -19l-123 -875q-30 -202 57 -330t265 -128t301 127t151 329l125 877q3 27 31 27h43q9 0 15 -8.5t5 -18.5l-122 -885q-34 -239 -188 -390.5t-376 -151.5q-210 0 -323.5 153t-81.5 389zM756 1700q0 33 23.5 56.5 t54.5 23.5q26 0 42.5 -17.5t16.5 -44.5q0 -32 -24 -55t-56 -23q-26 0 -41.5 17.5t-15.5 42.5zM1141 1700q0 33 23.5 56.5t54.5 23.5q26 0 42.5 -17.5t16.5 -44.5q0 -32 -24 -55t-56 -23q-24 0 -40.5 17.5t-16.5 42.5z" />
<glyph unicode="&#xdd;" horiz-adv-x="1048" d="M224.5 1426.5q5.5 7.5 19.5 7.5h57q17 0 23 -13l327 -628l508 628q13 13 29 13h67q15 0 20 -9.5t-5 -21.5l-578 -705l-94 -671q-1 -10 -10.5 -18.5t-20.5 -8.5h-41q-25 0 -22 27l92 669l-371 711q-6 12 -0.5 19.5zM588 1628q-7 18 16 29l322 184q24 12 32 -6l19 -43 q7 -21 -12 -31l-338 -162q-25 -11 -31 7z" />
<glyph unicode="&#xde;" horiz-adv-x="1134" d="M274 27l195 1380q1 10 10.5 18.5t18.5 8.5h45q10 0 17 -8t5 -19l-33 -227h330q146 0 251.5 -117.5t105.5 -280.5q0 -141 -67.5 -262.5t-179.5 -191.5t-239 -70h-330l-32 -231q-2 -11 -12 -19t-25 -8h-37q-10 0 -17.5 8t-5.5 19zM416 350h323q147 0 264 126t117 296 q0 131 -79.5 221t-198.5 90h-322z" />
<glyph unicode="&#xdf;" horiz-adv-x="1046" d="M-20 -588l202 1428q42 304 165 459t315 155q113 0 193.5 -71t80.5 -193q0 -68 -23.5 -133t-57 -113.5t-66.5 -89.5t-56.5 -76.5t-23.5 -60.5q0 -20 21.5 -48.5t52.5 -63t61.5 -75t52 -96.5t21.5 -115q0 -86 -29 -153t-79 -106.5t-112 -59.5t-133 -20q-108 0 -172 34 q-10 5 -14.5 16.5t0.5 26.5l14 31q14 28 33 16q79 -45 149 -45q104 0 176 65.5t72 180.5q0 50 -22 99.5t-53.5 88.5t-62.5 74.5t-53 72t-22 67.5q0 32 24 75.5t58 88.5t68 93t58 104t24 106q0 96 -56.5 147t-138.5 51q-148 0 -243 -134t-132 -398l-202 -1428q-2 -13 -7 -19 t-9.5 -6.5t-16.5 -0.5h-39q-22 0 -18 26z" />
<glyph unicode="&#xe0;" d="M143 344q0 134 57 248.5t153 181t208 66.5q47 0 89 -12t69 -30.5t42.5 -32t22.5 -24.5l17 56q5 22 28 22h23q9 0 15 -8t5 -18l-106 -766q-2 -11 -10.5 -19t-18.5 -8h-22q-12 0 -19 8t-6 21l4 69q-17 -20 -47.5 -43.5t-92.5 -49t-126 -25.5q-124 0 -204.5 105t-80.5 259z M233 356q0 -123 58 -208t155 -85q42 0 83.5 15t70.5 35t53 42.5t35.5 36.5t13.5 19l62 430q-3 5 -9.5 15t-24.5 28t-40 32.5t-57 26t-74 11.5q-139 0 -232.5 -116.5t-93.5 -281.5zM465 1339l24 39q6 10 17 11.5t18 -5.5l271 -184q15 -10 8 -29l-12 -18q-12 -15 -33 -6 l-291 162q-16 9 -2 30z" />
<glyph unicode="&#xe1;" d="M143 344q0 134 57 248.5t153 181t208 66.5q47 0 89 -12t69 -30.5t42.5 -32t22.5 -24.5l17 56q5 22 28 22h23q9 0 15 -8t5 -18l-106 -766q-2 -11 -10.5 -19t-18.5 -8h-22q-12 0 -19 8t-6 21l4 69q-17 -20 -47.5 -43.5t-92.5 -49t-126 -25.5q-124 0 -204.5 105t-80.5 259z M233 356q0 -123 58 -208t155 -85q42 0 83.5 15t70.5 35t53 42.5t35.5 36.5t13.5 19l62 430q-3 5 -9.5 15t-24.5 28t-40 32.5t-57 26t-74 11.5q-139 0 -232.5 -116.5t-93.5 -281.5zM436 1174q-6 16 17 28l321 184q5 4 17 3.5t16 -9.5l18 -43q7 -21 -12 -30l-338 -162 q-25 -11 -31 6z" />
<glyph unicode="&#xe2;" d="M143 344q0 134 57 248.5t153 181t208 66.5q47 0 89 -12t69 -30.5t42.5 -32t22.5 -24.5l17 56q5 22 28 22h23q9 0 15 -8t5 -18l-106 -766q-2 -11 -10.5 -19t-18.5 -8h-22q-12 0 -19 8t-6 21l4 69q-17 -20 -47.5 -43.5t-92.5 -49t-126 -25.5q-124 0 -204.5 105t-80.5 259z M233 356q0 -123 58 -208t155 -85q42 0 83.5 15t70.5 35t53 42.5t35.5 36.5t13.5 19l62 430q-3 5 -9.5 15t-24.5 28t-40 32.5t-57 26t-74 11.5q-139 0 -232.5 -116.5t-93.5 -281.5zM358 1153q-9 15 9 29l251 200q14 11 25 11q8 0 19 -11l196 -200q16 -16 4 -29l-14 -16 q-16 -16 -31 -4l-182 165l-232 -172q-18 -12 -30 4z" />
<glyph unicode="&#xe3;" d="M143 344q0 134 57 248.5t153 181t208 66.5q47 0 89 -12t69 -30.5t42.5 -32t22.5 -24.5l17 56q5 22 28 22h23q9 0 15 -8t5 -18l-106 -766q-2 -11 -10.5 -19t-18.5 -8h-22q-12 0 -19 8t-6 21l4 69q-17 -20 -47.5 -43.5t-92.5 -49t-126 -25.5q-124 0 -204.5 105t-80.5 259z M233 356q0 -123 58 -208t155 -85q42 0 83.5 15t70.5 35t53 42.5t35.5 36.5t13.5 19l62 430q-3 5 -9.5 15t-24.5 28t-40 32.5t-57 26t-74 11.5q-139 0 -232.5 -116.5t-93.5 -281.5zM352 1225q1 1 8.5 17.5t12 26t16 28t21 30.5t25 27.5t31 24.5t36.5 15.5t43 6.5 q35 0 59.5 -19.5t37.5 -46.5t24 -54.5t27 -47t38 -19.5q69 0 115 121q11 25 31 15l24 -9q14 -9 8 -26q-66 -176 -190 -176q-41 0 -70 29.5t-41.5 64.5t-31.5 64.5t-44 29.5q-71 0 -120 -129q-3 -9 -11.5 -12.5t-17.5 0.5l-23 10q-19 6 -8 29z" />
<glyph unicode="&#xe4;" d="M143 344q0 134 57 248.5t153 181t208 66.5q47 0 89 -12t69 -30.5t42.5 -32t22.5 -24.5l17 56q5 22 28 22h23q9 0 15 -8t5 -18l-106 -766q-2 -11 -10.5 -19t-18.5 -8h-22q-12 0 -19 8t-6 21l4 69q-17 -20 -47.5 -43.5t-92.5 -49t-126 -25.5q-124 0 -204.5 105t-80.5 259z M233 356q0 -123 58 -208t155 -85q42 0 83.5 15t70.5 35t53 42.5t35.5 36.5t13.5 19l62 430q-3 5 -9.5 15t-24.5 28t-40 32.5t-57 26t-74 11.5q-139 0 -232.5 -116.5t-93.5 -281.5zM387 1280q0 33 23.5 56.5t54.5 23.5q27 0 42 -17.5t15 -44.5q0 -32 -22 -54.5t-54 -22.5 q-26 0 -42.5 17t-16.5 42zM741 1280q0 33 22.5 56.5t53.5 23.5q27 0 44.5 -17.5t17.5 -44.5q0 -32 -23.5 -54.5t-56.5 -22.5q-26 0 -42 17t-16 42z" />
<glyph unicode="&#xe5;" d="M143 344q0 134 57 248.5t153 181t208 66.5q47 0 89 -12t69 -30.5t42.5 -32t22.5 -24.5l17 56q5 22 28 22h23q9 0 15 -8t5 -18l-106 -766q-2 -11 -10.5 -19t-18.5 -8h-22q-12 0 -19 8t-6 21l4 69q-17 -20 -47.5 -43.5t-92.5 -49t-126 -25.5q-124 0 -204.5 105t-80.5 259z M233 356q0 -123 58 -208t155 -85q42 0 83.5 15t70.5 35t53 42.5t35.5 36.5t13.5 19l62 430q-3 5 -9.5 15t-24.5 28t-40 32.5t-57 26t-74 11.5q-139 0 -232.5 -116.5t-93.5 -281.5zM424 1204q0 105 66.5 177.5t164.5 72.5q73 0 120.5 -54.5t47.5 -133.5q0 -105 -65.5 -176.5 t-163.5 -71.5q-74 0 -122 53.5t-48 132.5zM492 1217q0 -55 31.5 -94.5t80.5 -39.5q64 0 107 51t43 121q0 53 -31 92t-76 39q-65 0 -110 -49.5t-45 -119.5z" />
<glyph unicode="&#xe6;" horiz-adv-x="1302" d="M74 256q17 120 109.5 195t228.5 75q119 0 184 -26q13 91 13 148.5t-28.5 84.5t-97.5 27q-31 0 -61.5 -4t-54 -9t-46.5 -12.5t-36.5 -12.5t-26.5 -11t-14 -6q-11 -3 -18 1.5t-7 14.5l-4 33q0 18 21 26q13 7 35.5 17t91 26.5t133.5 16.5q84 0 127 -30.5t57 -92.5 q53 56 137 89.5t170 33.5q111 0 189.5 -59t78.5 -152q0 -67 -33 -115t-86 -72.5t-117 -38t-128 -14t-117 1.5t-86 7l-33 5l-18 -190q29 -69 86 -109.5t135 -40.5q112 0 225 76q20 13 31 -2l19 -28q9 -13 -11 -33q-36 -36 -118 -66t-164 -30q-152 0 -238 139 q-50 -54 -140 -96.5t-179 -42.5q-103 0 -165 76t-44 200zM158 254q-13 -94 28 -144.5t119 -50.5q72 0 141.5 36.5t104.5 80.5l35 246q-78 31 -178 31q-101 0 -169.5 -54t-80.5 -145zM666 475q92 -16 181.5 -14t160.5 17t115 53t44 94q0 55 -50.5 92t-127.5 37 q-101 0 -178 -38t-123 -100z" />
<glyph unicode="&#xe7;" horiz-adv-x="870" d="M147 350q0 106 37 198t99 155.5t144 100t171 36.5q92 0 155 -39t97 -88q11 -16 -10 -37l-17 -14q-22 -19 -41 4q-13 17 -33.5 34t-64.5 35.5t-94 18.5q-137 0 -243.5 -115.5t-106.5 -278.5q0 -127 70 -212t177 -85q123 0 231 120l5 5q22 22 39 5l24 -23q18 -14 2 -33 q-42 -52 -127 -104t-184 -53l-12 -91q69 -8 120.5 -54t51.5 -118q0 -95 -59 -160t-154 -65q-51 0 -88 22t-47 48t6 37l20 16q6 4 10 5.5t8.5 -2.5t5.5 -5t7 -10q28 -37 88 -37q55 0 89 40.5t34 98.5q0 102 -149 123q-25 5 -21 27l19 133q-111 27 -185 127.5t-74 234.5z" />
<glyph unicode="&#xe8;" horiz-adv-x="847" d="M143 342q0 134 53.5 247.5t152.5 182t222 68.5q109 0 182.5 -58.5t73.5 -152.5q0 -62 -33 -109.5t-85 -73t-115.5 -42t-127 -21t-115.5 -5t-85 1.5l-33 3q-12 -135 53 -227.5t183 -92.5q63 0 123 25.5t100 54.5q22 15 33 -4l18 -30q11 -18 -6 -33q-31 -29 -112.5 -62.5 t-173.5 -33.5q-139 0 -223.5 103.5t-84.5 258.5zM244 461q84 -9 171.5 -3.5t159.5 21t118 53.5t46 93t-50.5 92t-127.5 37q-115 0 -202.5 -82.5t-114.5 -210.5zM469 1339l25 39q6 10 16.5 11.5t17.5 -5.5l271 -184q15 -10 8 -29l-12 -18q-12 -15 -33 -6l-291 162 q-16 9 -2 30z" />
<glyph unicode="&#xe9;" horiz-adv-x="847" d="M143 342q0 134 53.5 247.5t152.5 182t222 68.5q109 0 182.5 -58.5t73.5 -152.5q0 -62 -33 -109.5t-85 -73t-115.5 -42t-127 -21t-115.5 -5t-85 1.5l-33 3q-12 -135 53 -227.5t183 -92.5q63 0 123 25.5t100 54.5q22 15 33 -4l18 -30q11 -18 -6 -33q-31 -29 -112.5 -62.5 t-173.5 -33.5q-139 0 -223.5 103.5t-84.5 258.5zM244 461q84 -9 171.5 -3.5t159.5 21t118 53.5t46 93t-50.5 92t-127.5 37q-115 0 -202.5 -82.5t-114.5 -210.5zM440 1174q-6 16 17 28l321 184q5 4 17 3.5t16 -9.5l18 -43q7 -21 -12 -30l-338 -162q-24 -11 -30 6z" />
<glyph unicode="&#xea;" horiz-adv-x="847" d="M143 342q0 134 53.5 247.5t152.5 182t222 68.5q109 0 182.5 -58.5t73.5 -152.5q0 -62 -33 -109.5t-85 -73t-115.5 -42t-127 -21t-115.5 -5t-85 1.5l-33 3q-12 -135 53 -227.5t183 -92.5q63 0 123 25.5t100 54.5q22 15 33 -4l18 -30q11 -18 -6 -33q-31 -29 -112.5 -62.5 t-173.5 -33.5q-139 0 -223.5 103.5t-84.5 258.5zM244 461q84 -9 171.5 -3.5t159.5 21t118 53.5t46 93t-50.5 92t-127.5 37q-115 0 -202.5 -82.5t-114.5 -210.5zM360 1153q-9 15 9 29l252 200q14 11 24 11q8 0 19 -11l196 -200q16 -16 4 -29l-14 -16q-16 -16 -31 -4l-182 165 l-231 -172q-19 -12 -31 4z" />
<glyph unicode="&#xeb;" horiz-adv-x="847" d="M143 342q0 134 53.5 247.5t152.5 182t222 68.5q109 0 182.5 -58.5t73.5 -152.5q0 -62 -33 -109.5t-85 -73t-115.5 -42t-127 -21t-115.5 -5t-85 1.5l-33 3q-12 -135 53 -227.5t183 -92.5q63 0 123 25.5t100 54.5q22 15 33 -4l18 -30q11 -18 -6 -33q-31 -29 -112.5 -62.5 t-173.5 -33.5q-139 0 -223.5 103.5t-84.5 258.5zM244 461q84 -9 171.5 -3.5t159.5 21t118 53.5t46 93t-50.5 92t-127.5 37q-115 0 -202.5 -82.5t-114.5 -210.5zM393 1280q0 33 23.5 56.5t54.5 23.5q27 0 42 -17.5t15 -44.5q0 -32 -21.5 -54.5t-53.5 -22.5q-26 0 -43 17 t-17 42zM748 1280q0 34 22 57t53 23q27 0 44.5 -17.5t17.5 -44.5q0 -32 -23.5 -54.5t-56.5 -22.5q-26 0 -41.5 17t-15.5 42z" />
<glyph unicode="&#xec;" horiz-adv-x="395" d="M152 27l108 766q1 10 10.5 18t18.5 8h39q10 0 17 -7.5t5 -18.5l-110 -766q-1 -11 -11.5 -19t-21.5 -8h-33q-10 0 -17 8t-5 19zM207 1339l24 39q6 10 17 11.5t18 -5.5l271 -184q15 -10 8 -29l-13 -18q-12 -15 -32 -6l-291 162q-16 9 -2 30z" />
<glyph unicode="&#xed;" horiz-adv-x="395" d="M152 27l108 766q1 10 10.5 18t18.5 8h39q10 0 17 -7.5t5 -18.5l-110 -766q-1 -11 -11.5 -19t-21.5 -8h-33q-10 0 -17 8t-5 19zM178 1174q-6 16 17 28l321 184q5 4 17 3.5t16 -9.5l18 -43q7 -21 -12 -30l-338 -162q-25 -11 -31 6z" />
<glyph unicode="&#xee;" horiz-adv-x="395" d="M41 1153q-9 15 8 29l252 200q14 11 25 11q7 0 18 -11l197 -200q17 -16 4 -29l-15 -16q-16 -16 -30 -4l-183 165l-231 -172q-19 -12 -31 4zM94 27l109 766q1 10 10 18t18 8h39q11 0 17.5 -8t5.5 -18l-111 -766q-1 -12 -11 -19.5t-21 -7.5h-33q-10 0 -17.5 8t-5.5 19z" />
<glyph unicode="&#xef;" horiz-adv-x="395" d="M106 1280q0 33 23.5 56.5t54.5 23.5q27 0 42.5 -17.5t15.5 -44.5q0 -32 -22 -54.5t-54 -22.5q-26 0 -43 17t-17 42zM129 27l109 766q1 10 10 18t18 8h39q11 0 17.5 -8t5.5 -18l-111 -766q-1 -11 -11.5 -19t-21.5 -8h-32q-10 0 -17.5 8t-5.5 19zM461 1280q0 33 22.5 56.5 t53.5 23.5q27 0 44 -17.5t17 -44.5q0 -32 -23.5 -54.5t-56.5 -22.5q-26 0 -41.5 17t-15.5 42z" />
<glyph unicode="&#xf0;" horiz-adv-x="1050" d="M147 387q0 113 40.5 210.5t106.5 162.5t149.5 102t170.5 37q64 0 122 -19.5t95.5 -48t60.5 -54t30 -44.5q-3 253 -193 455l-225 -137q-9 -5 -19.5 -2t-13.5 12l-4 10q-4 9 -0.5 19.5t12.5 15.5l203 123q-110 95 -197 135q-21 9 -6 33l19 35q10 17 28 10q129 -56 244 -166 l137 82q24 12 35 -10l4 -11q7 -22 -14 -34l-115 -70q88 -99 145.5 -241.5t57.5 -311.5q0 -113 -22 -217.5t-66 -192t-106 -152.5t-147 -101.5t-183 -36.5q-149 0 -249 119t-100 288zM238 393q0 -136 76 -231.5t194 -95.5q84 0 156.5 40t123 108t84 153.5t46.5 181.5 q4 46 4 61q-6 12 -13.5 25.5t-36.5 49t-61.5 61.5t-87.5 47.5t-115 21.5q-146 0 -258 -121.5t-112 -300.5z" />
<glyph unicode="&#xf1;" horiz-adv-x="942" d="M152 27l108 766q1 10 10.5 18t20.5 8h20q23 0 23 -20l-4 -82q32 37 111.5 80t176.5 43q145 0 206 -99.5t36 -275.5l-61 -438q-1 -10 -10.5 -18.5t-20.5 -8.5h-37q-10 0 -17 8t-5 19l61 438q20 140 -24 214.5t-146 74.5q-51 0 -103 -20t-89.5 -49t-58 -47.5t-27.5 -27.5 l-82 -583q-3 -27 -31 -27h-39q-10 0 -15 8t-3 19zM373 1225q1 2 8.5 18t12 25.5t15.5 28t20.5 31t25 27.5t31 24t36.5 15.5t43 6.5q43 0 71 -29t39.5 -64.5t30.5 -64.5t46 -29q68 0 114 121q11 25 31 15l25 -9q14 -9 8 -26t-9.5 -26t-22 -41.5t-37.5 -52.5t-52 -38t-70 -18 q-34 0 -58.5 19.5t-38.5 47t-25.5 55t-27 47t-36.5 19.5q-72 0 -121 -129q-3 -9 -11.5 -12.5t-17.5 0.5l-22 10q-19 6 -8 29z" />
<glyph unicode="&#xf2;" horiz-adv-x="937" d="M143 350q0 131 58.5 244t159.5 179.5t219 66.5q132 0 222.5 -108.5t90.5 -262.5q0 -132 -59 -244.5t-159 -178.5t-216 -66q-133 0 -224.5 108t-91.5 262zM233 358q0 -125 66 -210t170 -85q132 0 232 118t100 280q0 124 -65.5 208.5t-168.5 84.5q-133 0 -233.5 -117.5 t-100.5 -278.5zM483 1339l25 39q6 10 17 11.5t18 -5.5l270 -184q15 -10 8 -29l-12 -18q-12 -15 -33 -6l-291 162q-16 9 -2 30z" />
<glyph unicode="&#xf3;" horiz-adv-x="937" d="M143 350q0 131 58.5 244t159.5 179.5t219 66.5q132 0 222.5 -108.5t90.5 -262.5q0 -132 -59 -244.5t-159 -178.5t-216 -66q-133 0 -224.5 108t-91.5 262zM233 358q0 -125 66 -210t170 -85q132 0 232 118t100 280q0 124 -65.5 208.5t-168.5 84.5q-133 0 -233.5 -117.5 t-100.5 -278.5zM455 1174q-7 17 16 28l322 184q24 12 32 -6l19 -43q7 -20 -13 -30l-337 -162q-25 -11 -31 6z" />
<glyph unicode="&#xf4;" horiz-adv-x="937" d="M143 350q0 131 58.5 244t159.5 179.5t219 66.5q132 0 222.5 -108.5t90.5 -262.5q0 -132 -59 -244.5t-159 -178.5t-216 -66q-133 0 -224.5 108t-91.5 262zM233 358q0 -125 66 -210t170 -85q132 0 232 118t100 280q0 124 -65.5 208.5t-168.5 84.5q-133 0 -233.5 -117.5 t-100.5 -278.5zM375 1153q-9 15 8 29l252 200q14 11 24 11q8 0 19 -11l196 -200q17 -17 5 -29l-15 -16q-16 -16 -30 -4l-183 165l-231 -172q-19 -12 -31 4z" />
<glyph unicode="&#xf5;" horiz-adv-x="937" d="M143 350q0 131 58.5 244t159.5 179.5t219 66.5q132 0 222.5 -108.5t90.5 -262.5q0 -132 -59 -244.5t-159 -178.5t-216 -66q-133 0 -224.5 108t-91.5 262zM233 358q0 -125 66 -210t170 -85q132 0 232 118t100 280q0 124 -65.5 208.5t-168.5 84.5q-133 0 -233.5 -117.5 t-100.5 -278.5zM371 1225q1 2 8.5 18t12 25.5t15.5 28t20.5 31t25 27.5t31 24t36.5 15.5t43 6.5q43 0 71 -29t39.5 -64.5t30.5 -64.5t46 -29q68 0 114 121q11 25 31 15l25 -9q14 -9 8 -26t-9.5 -26t-22 -41.5t-37.5 -52.5t-52 -38t-70 -18q-34 0 -58.5 19.5t-38.5 47 t-25.5 55t-27 47t-36.5 19.5q-72 0 -121 -129q-3 -9 -11.5 -12.5t-17.5 0.5l-22 10q-19 6 -8 29z" />
<glyph unicode="&#xf6;" horiz-adv-x="937" d="M143 350q0 131 58.5 244t159.5 179.5t219 66.5q132 0 222.5 -108.5t90.5 -262.5q0 -132 -59 -244.5t-159 -178.5t-216 -66q-133 0 -224.5 108t-91.5 262zM233 358q0 -125 66 -210t170 -85q132 0 232 118t100 280q0 124 -65.5 208.5t-168.5 84.5q-133 0 -233.5 -117.5 t-100.5 -278.5zM408 1280q0 33 23 56.5t54 23.5q27 0 42.5 -17.5t15.5 -44.5q0 -32 -22 -54.5t-54 -22.5q-26 0 -42.5 17t-16.5 42zM762 1280q0 33 22.5 56.5t53.5 23.5q27 0 44 -17.5t17 -44.5q0 -32 -23.5 -54.5t-56.5 -22.5q-26 0 -41.5 17t-15.5 42z" />
<glyph unicode="&#xf7;" horiz-adv-x="1112" d="M389 696l4 33q1 10 10.5 18.5t18.5 8.5h708q10 0 16.5 -8t4.5 -19l-4 -33q-2 -11 -10.5 -18.5t-18.5 -7.5h-706q-11 0 -17.5 8t-5.5 18zM637 379q0 37 29 64.5t65 27.5q30 0 49 -21t19 -51q0 -37 -27 -65.5t-65 -28.5q-29 0 -49.5 22t-20.5 52zM727 1022q0 37 29 64.5 t65 27.5q30 0 49 -21t19 -51q0 -37 -27 -65.5t-65 -28.5q-29 0 -49.5 22t-20.5 52z" />
<glyph unicode="&#xf8;" horiz-adv-x="933" d="M135 74q-17 16 4 37l37 36q-41 84 -41 201q0 130 61 244t161.5 181t213.5 67q146 0 234 -119l47 45q19 16 35 0l8 -8q7 -8 6 -18.5t-10 -18.5l-51 -49q43 -82 43 -203q0 -132 -61 -245.5t-160.5 -178.5t-210.5 -65q-149 0 -240 118l-35 -35q-15 -15 -33 3zM225 352 q0 -79 25 -143l483 450q-66 95 -174 95q-134 0 -234 -118.5t-100 -283.5zM283 160q67 -97 178 -97q134 0 234 117t100 279q0 85 -29 151z" />
<glyph unicode="&#xf9;" d="M217 352l62 441q1 10 10 18t18 8h39q11 0 17.5 -8t5.5 -18l-64 -441q-20 -141 24.5 -215t145.5 -74q43 0 85 14.5t71 34t53.5 42t36 36t14.5 19.5l82 584q3 26 29 26h39q9 0 15 -8t5 -18l-106 -766q-1 -10 -10.5 -18.5t-20.5 -8.5h-25q-20 0 -20 25l4 73 q-24 -35 -99 -76.5t-171 -41.5q-145 0 -205 97.5t-35 274.5zM500 1339l24 39q6 10 17 11.5t18 -5.5l270 -184q16 -11 9 -29l-13 -18q-12 -15 -32 -6l-291 162q-16 9 -2 30z" />
<glyph unicode="&#xfa;" d="M217 352l62 441q1 10 10 18t18 8h39q11 0 17.5 -8t5.5 -18l-64 -441q-20 -141 24.5 -215t145.5 -74q43 0 85 14.5t71 34t53.5 42t36 36t14.5 19.5l82 584q3 26 29 26h39q9 0 15 -8t5 -18l-106 -766q-1 -10 -10.5 -18.5t-20.5 -8.5h-25q-20 0 -20 25l4 73 q-24 -35 -99 -76.5t-171 -41.5q-145 0 -205 97.5t-35 274.5zM473 1174q-7 17 16 28l322 184q5 4 17 3.5t16 -9.5l18 -43q7 -21 -12 -30l-338 -162q-25 -11 -31 6z" />
<glyph unicode="&#xfb;" d="M217 352l62 441q1 10 10 18t18 8h39q11 0 17.5 -8t5.5 -18l-64 -441q-20 -141 24.5 -215t145.5 -74q43 0 85 14.5t71 34t53.5 42t36 36t14.5 19.5l82 584q3 26 29 26h39q9 0 15 -8t5 -18l-106 -766q-1 -10 -10.5 -18.5t-20.5 -8.5h-25q-20 0 -20 25l4 73 q-24 -35 -99 -76.5t-171 -41.5q-145 0 -205 97.5t-35 274.5zM393 1153q-9 15 8 29l252 200q14 11 25 11q7 0 18 -11l197 -200q17 -16 4 -29l-14 -16q-16 -16 -31 -4l-182 165l-232 -172q-18 -12 -30 4z" />
<glyph unicode="&#xfc;" d="M217 352l62 441q1 10 10 18t18 8h39q11 0 17.5 -8t5.5 -18l-64 -441q-20 -141 24.5 -215t145.5 -74q43 0 85 14.5t71 34t53.5 42t36 36t14.5 19.5l82 584q3 26 29 26h39q9 0 15 -8t5 -18l-106 -766q-1 -10 -10.5 -18.5t-20.5 -8.5h-25q-20 0 -20 25l4 73 q-24 -35 -99 -76.5t-171 -41.5q-145 0 -205 97.5t-35 274.5zM422 1280q0 33 23.5 56.5t54.5 23.5q27 0 42 -17.5t15 -44.5q0 -32 -22 -54.5t-54 -22.5q-26 0 -42.5 17t-16.5 42zM776 1280q0 33 22.5 56.5t53.5 23.5q27 0 44 -17.5t17 -44.5q0 -32 -23.5 -54.5t-55.5 -22.5 q-26 0 -42 17t-16 42z" />
<glyph unicode="&#xfd;" horiz-adv-x="835" d="M-74.5 -607q-4.5 7 2.5 21l330 594l-238 778q-3 13 2.5 23t18.5 10h43q16 0 22 -18l205 -695h4l381 695q9 18 29 18h45q13 0 17.5 -10.5t-3.5 -22.5l-770 -1384q-10 -16 -28 -16h-43q-13 0 -17.5 7zM283 1174q-7 17 16 28l322 184q24 12 32 -6l19 -43q7 -20 -13 -30 l-337 -162q-25 -11 -31 6z" />
<glyph unicode="&#xfe;" horiz-adv-x="925" d="M-16 -588l280 1995q1 11 11.5 19t21.5 8h33q10 0 17 -8t5 -19l-94 -664q112 97 244 97q133 0 216 -106t83 -261q0 -210 -123.5 -351.5t-310.5 -141.5q-78 0 -131 30t-72 56l-92 -654q-1 -10 -10.5 -18t-18.5 -8h-37q-10 0 -17 7.5t-5 18.5zM180 164q0 -3 7.5 -13 t24 -24.5t38 -28t53.5 -23t66 -9.5q145 0 244.5 115t99.5 284q0 123 -62.5 207t-167.5 84q-39 0 -77 -11.5t-65 -27t-49 -33.5t-32.5 -29t-13.5 -16z" />
<glyph unicode="&#xff;" horiz-adv-x="835" d="M-74.5 -607q-4.5 7 2.5 21l330 594l-238 778q-3 13 2.5 23t18.5 10h43q16 0 22 -18l205 -695h4l381 695q9 18 29 18h45q13 0 17.5 -10.5t-3.5 -22.5l-770 -1384q-10 -16 -28 -16h-43q-13 0 -17.5 7zM233 1280q0 33 23.5 56.5t54.5 23.5q27 0 42.5 -17.5t15.5 -44.5 q0 -32 -22 -54.5t-54 -22.5q-26 0 -43 17t-17 42zM588 1280q0 33 22.5 56.5t53.5 23.5q27 0 44 -17.5t17 -44.5q0 -32 -23.5 -54.5t-56.5 -22.5q-26 0 -41.5 17t-15.5 42z" />
<glyph unicode="&#x152;" horiz-adv-x="1830" d="M266 614q0 170 62 326t166 268.5t246.5 179t297.5 66.5q89 0 156 -20h733q10 0 16.5 -8t4.5 -19l-4 -35q-2 -11 -10.5 -18.5t-18.5 -7.5h-666l-78 -566h574q10 0 17 -7.5t5 -18.5l-4 -35q-2 -11 -11 -19t-19 -8h-574l-86 -606h666q9 0 15 -8.5t5 -18.5l-6 -32 q-2 -11 -9.5 -19t-17.5 -8h-733q-77 -20 -162 -20q-159 0 -289 84.5t-203 229.5t-73 320zM354 627q0 -152 62.5 -279.5t176 -202.5t253.5 -75q69 0 129 14l178 1262q-66 16 -127 16q-129 0 -251.5 -58.5t-215 -156t-149 -235t-56.5 -285.5z" />
<glyph unicode="&#x153;" horiz-adv-x="1458" d="M139 350q0 131 58.5 244t158 179.5t215.5 66.5q90 0 160.5 -42.5t110.5 -119.5q65 75 158 118.5t180 43.5q111 0 189.5 -59t78.5 -152q0 -67 -33 -115t-86.5 -72.5t-117.5 -38t-128 -14t-117.5 1.5t-86.5 7l-33 5l-23 -180q29 -70 90 -115t138 -45q112 0 225 76 q22 14 31 -2l18 -31q9 -13 -10 -32q-39 -35 -120.5 -64.5t-162.5 -29.5q-85 0 -157 50.5t-103 119.5q-63 -79 -146.5 -124.5t-174.5 -45.5q-130 0 -221 108t-91 262zM227 358q0 -125 66.5 -210t169.5 -85q88 0 169.5 57.5t112.5 123.5l50 348q-22 60 -86 111t-148 51 q-132 0 -233 -117.5t-101 -278.5zM856 475q92 -16 182 -14t161.5 17t116 53t44.5 94q0 55 -50.5 92t-127.5 37q-99 0 -180 -47t-130 -113z" />
<glyph unicode="&#x178;" horiz-adv-x="1048" d="M224.5 1426.5q5.5 7.5 19.5 7.5h57q17 0 23 -13l327 -628l508 628q13 13 29 13h67q15 0 20 -9.5t-5 -21.5l-578 -705l-94 -671q-1 -10 -10.5 -18.5t-20.5 -8.5h-41q-25 0 -22 27l92 669l-371 711q-6 12 -0.5 19.5zM520 1700q0 33 23.5 56.5t54.5 23.5q26 0 42.5 -17.5 t16.5 -44.5q0 -32 -23.5 -55t-55.5 -23q-26 0 -42 17.5t-16 42.5zM905 1700q0 33 23.5 56.5t54.5 23.5q26 0 42.5 -17.5t16.5 -44.5q0 -32 -23.5 -55t-55.5 -23q-25 0 -41.5 17.5t-16.5 42.5z" />
<glyph unicode="&#x2c6;" horiz-adv-x="688" d="M250 1153q-9 15 8 29l252 200q14 11 25 11q7 0 18 -11l197 -200q16 -16 4 -29l-15 -16q-16 -16 -30 -4l-183 165l-231 -172q-19 -12 -31 4z" />
<glyph unicode="&#x2dc;" horiz-adv-x="700" d="M229 1225q1 1 8.5 17.5t12 26t16 28t21 30.5t25 27.5t31 24.5t36.5 15.5t43 6.5q35 0 59.5 -19.5t37.5 -46.5t24 -54.5t27 -47t38 -19.5q69 0 115 121q11 25 31 15l24 -9q14 -9 8 -26q-66 -176 -190 -176q-34 0 -58.5 19.5t-38.5 47t-25.5 55t-27 47t-36.5 19.5 q-72 0 -121 -129q-3 -9 -11.5 -12.5t-17.5 0.5l-22 10q-20 7 -9 29z" />
<glyph unicode="&#x2000;" horiz-adv-x="990" />
<glyph unicode="&#x2001;" horiz-adv-x="1980" />
<glyph unicode="&#x2002;" horiz-adv-x="990" />
<glyph unicode="&#x2003;" horiz-adv-x="1980" />
<glyph unicode="&#x2004;" horiz-adv-x="660" />
<glyph unicode="&#x2005;" horiz-adv-x="495" />
<glyph unicode="&#x2006;" horiz-adv-x="330" />
<glyph unicode="&#x2007;" horiz-adv-x="330" />
<glyph unicode="&#x2008;" horiz-adv-x="247" />
<glyph unicode="&#x2009;" horiz-adv-x="396" />
<glyph unicode="&#x200a;" horiz-adv-x="110" />
<glyph unicode="&#x2010;" horiz-adv-x="925" d="M438 500l2 22q1 12 9.5 19.5t19.5 7.5h410q11 0 17 -7.5t5 -19.5l-2 -22q-4 -27 -31 -27h-409q-10 0 -16.5 8t-4.5 19z" />
<glyph unicode="&#x2011;" horiz-adv-x="925" d="M438 500l2 22q1 12 9.5 19.5t19.5 7.5h410q11 0 17 -7.5t5 -19.5l-2 -22q-4 -27 -31 -27h-409q-10 0 -16.5 8t-4.5 19z" />
<glyph unicode="&#x2012;" horiz-adv-x="925" d="M438 500l2 22q1 12 9.5 19.5t19.5 7.5h410q11 0 17 -7.5t5 -19.5l-2 -22q-4 -27 -31 -27h-409q-10 0 -16.5 8t-4.5 19z" />
<glyph unicode="&#x2013;" horiz-adv-x="1234" d="M475 502l2 16q1 10 10.5 18.5t20.5 8.5h702q12 0 18.5 -8t4.5 -19l-2 -16q-4 -25 -31 -25h-702q-11 0 -17.5 7.5t-5.5 17.5z" />
<glyph unicode="&#x2014;" horiz-adv-x="1636" d="M475 502l2 16q1 10 10.5 18.5t20.5 8.5h1104q12 0 18 -8t4 -19l-2 -16q-4 -25 -28 -25h-1106q-11 0 -17.5 7.5t-5.5 17.5z" />
<glyph unicode="&#x2018;" horiz-adv-x="378" d="M336 1106q0 70 20.5 132.5t51.5 103t58.5 66t49.5 36.5q24 14 35 0l12 -21q11 -18 -12 -32q-10 -6 -22.5 -17t-35 -35t-42.5 -62t-31 -81q-10 -50 -4 -78q17 10 28 10q34 0 52 -19.5t18 -49.5q0 -42 -27 -67t-69 -25q-37 0 -59.5 35.5t-22.5 103.5z" />
<glyph unicode="&#x2019;" horiz-adv-x="376" d="M324 997q-10 17 12 33q10 6 22.5 17t35 35t42.5 62t31 81t4 78q-15 -11 -29 -11q-33 0 -51 20t-18 50q0 42 27 67t69 25q37 0 59.5 -35.5t22.5 -103.5q0 -70 -20.5 -132.5t-51.5 -103t-58.5 -66t-49.5 -36.5q-25 -14 -33 0z" />
<glyph unicode="&#x201a;" horiz-adv-x="458" d="M57 -315q-10 17 13 32q10 6 22.5 17t35 35t42.5 62t31 81q10 50 4 78q-17 -10 -29 -10q-34 0 -52 19.5t-18 49.5q0 42 27.5 67t69.5 25q37 0 59.5 -35.5t22.5 -103.5q0 -70 -21 -132.5t-52 -103t-58.5 -66t-49.5 -36.5q-23 -13 -34 0z" />
<glyph unicode="&#x201c;" horiz-adv-x="712" d="M340 1108q0 70 20.5 132.5t51.5 103t58.5 66t49.5 36.5q27 13 35 0l12 -21q13 -16 -12 -32q-103 -82 -131 -195q-10 -50 -4 -78q17 10 29 10q34 0 51.5 -19.5t17.5 -49.5q0 -42 -27 -67t-69 -25q-36 0 -59 36t-23 103zM670 1108q0 70 20.5 132.5t52 103t59 66t50.5 36.5 q25 14 33 0l14 -21q10 -16 -12 -32q-10 -7 -22.5 -17.5t-36 -35t-43.5 -62t-31 -80.5q-10 -50 -4 -78q17 10 30 10q32 0 50 -20t18 -49q0 -42 -26 -67t-68 -25q-37 0 -60.5 35.5t-23.5 103.5z" />
<glyph unicode="&#x201d;" horiz-adv-x="708" d="M324 997q-10 17 12 33q10 6 22.5 17t35 35t42.5 62t31 81t4 78q-15 -11 -29 -11q-33 0 -51 20t-18 50q0 42 27 67t69 25q37 0 59.5 -35.5t22.5 -103.5q0 -70 -20.5 -132.5t-51.5 -103t-58.5 -66t-49.5 -36.5q-25 -14 -33 0zM653 997q-10 17 13 33q10 7 22.5 17.5t36 35 t43.5 62t31 80.5q10 50 4 78q-18 -11 -31 -11q-32 0 -49.5 20t-17.5 50q0 42 26 67t68 25q37 0 60.5 -35.5t23.5 -103.5q0 -70 -21 -132.5t-52 -103t-59 -66t-51 -36.5q-24 -14 -32 0z" />
<glyph unicode="&#x201e;" horiz-adv-x="788" d="M57 -315q-10 17 13 32q10 6 22.5 17t35 35t42.5 62t31 81q10 50 4 78q-17 -10 -29 -10q-34 0 -52 19.5t-18 49.5q0 42 27.5 67t69.5 25q37 0 59.5 -35.5t22.5 -103.5q0 -70 -21 -132.5t-52 -103t-58.5 -66t-49.5 -36.5q-23 -13 -34 0zM387 -315q-10 16 12 32 q10 6 22.5 17t35 35t42.5 62t31 81q12 45 5 78q-13 -10 -29 -10q-34 0 -52 19.5t-18 49.5q0 42 27 67t69 25q37 0 59.5 -35.5t22.5 -103.5q0 -70 -20.5 -132.5t-51.5 -103t-58.5 -66t-49.5 -36.5q-25 -14 -33 0z" />
<glyph unicode="&#x2022;" horiz-adv-x="651" d="M360 442q0 70 50 120t116 50q55 0 91 -38.5t36 -94.5q0 -67 -51 -115.5t-119 -48.5q-52 0 -87.5 37t-35.5 90z" />
<glyph unicode="&#x2026;" horiz-adv-x="1150" d="M131 53q0 37 29 64.5t65 27.5q30 0 49 -20.5t19 -50.5q0 -37 -27 -65.5t-65 -28.5q-29 0 -49.5 21.5t-20.5 51.5zM485 53q0 37 28.5 64.5t64.5 27.5q30 0 48.5 -20.5t18.5 -50.5q0 -37 -27 -65.5t-63 -28.5q-30 0 -50 21.5t-20 51.5zM846 53q0 38 28 65t64 27 q30 0 49 -20.5t19 -50.5q0 -37 -27.5 -65.5t-65.5 -28.5q-29 0 -48 21.5t-19 51.5z" />
<glyph unicode="&#x202f;" horiz-adv-x="396" />
<glyph unicode="&#x2039;" horiz-adv-x="477" d="M137 408q-7 18 6 34l238 316q13 18 35 18h33q8 0 12 -5t2.5 -13.5t-8.5 -18.5l-211 -313l121 -322q6 -15 1 -25.5t-16 -10.5h-35q-19 0 -28 18z" />
<glyph unicode="&#x203a;" horiz-adv-x="475" d="M80 104l211 322l-123 313q-6 15 -1 26t17 11h33q20 0 29 -18l149 -316q9 -15 -4 -34l-239 -322q-14 -18 -35 -18h-33q-26 0 -4 36z" />
<glyph unicode="&#x205f;" horiz-adv-x="495" />
<glyph unicode="&#x20ac;" horiz-adv-x="1402" d="M147 557v10q2 11 10.5 19t18.5 8h86q0 113 17 178h-78q-10 0 -16.5 9t-4.5 20l2 10q2 11 10.5 19t18.5 8h84q51 174 161 314t263 221t321 81q266 0 420 -190q6 -7 5.5 -18.5t-7.5 -18.5l-37 -31q-21 -20 -41 0q-129 166 -354 166q-207 0 -383 -149.5t-244 -374.5h582 q13 0 19 -9.5t4 -21.5l-3 -8q-4 -27 -28 -27h-592q-19 -93 -19 -178h512q11 0 17 -9.5t4 -21.5v-8q-1 -10 -9.5 -17.5t-19.5 -7.5h-495q25 -202 154.5 -330t320.5 -128q125 0 211 41t194 131q23 16 43 -6l21 -25q16 -19 -4 -35q-216 -198 -480 -198q-221 0 -381 156 t-182 394h-100q-11 0 -17 8t-4 19z" />
<glyph unicode="&#x2122;" horiz-adv-x="1331" d="M414 1397l2 12q1 10 9 17.5t17 7.5h385q9 0 15 -8t4 -19l-2 -14q-1 -12 -9.5 -19.5t-17.5 -7.5h-155l-76 -532q-2 -11 -9.5 -19t-17.5 -8h-27q-8 0 -13.5 8t-4.5 19l76 532h-158q-10 0 -15 9t-3 22zM795.5 816.5q-3.5 9.5 1.5 21.5l209 596q5 12 8.5 16t13.5 4h14 q14 0 17 -20l80 -494h2l227 494q10 20 21 20h14q10 0 13 -4t5 -16l41 -596q4 -31 -22 -31h-29q-17 0 -20 20l-25 445h-2l-213 -459q-8 -16 -18 -16h-19q-11 0 -14 16l-84 459h-2l-150 -445q-6 -20 -22 -20h-31q-12 0 -15.5 9.5z" />
<glyph unicode="&#x25fc;" horiz-adv-x="819" d="M0 0v819h819v-819h-819z" />
</font>
</defs>
</svg>
